<?xml version="1.0" standalone="no"?>
<!DOCTYPE svg PUBLIC "-//W3C//DTD SVG 20010904//EN"
 "http://www.w3.org/TR/2001/REC-SVG-20010904/DTD/svg10.dtd">
<svg version="1.0" xmlns="http://www.w3.org/2000/svg"
 width="1251.000000pt" height="1251.000000pt" viewBox="0 0 1251.000000 1251.000000"
 preserveAspectRatio="xMidYMid meet">
<metadata>
Created by potrace 1.14, written by Peter Selinger 2001-2017
</metadata>
<g transform="translate(0.000000,1251.000000) scale(0.100000,-0.100000)"
fill="#000000" stroke="none">
<path d="M0 6255 l0 -6255 6255 0 6255 0 0 6255 0 6255 -6255 0 -6255 0 0
-6255z m6416 3910 c60 -8 118 -17 129 -20 11 -2 61 -14 110 -26 88 -20 259
-71 380 -111 389 -129 595 -205 595 -219 0 -5 11 -9 25 -9 14 0 25 -6 25 -13
0 -9 12 -14 31 -15 17 0 39 -8 48 -16 23 -21 31 -20 31 2 0 25 139 146 228
199 117 70 235 91 277 50 22 -22 47 -78 41 -93 -3 -8 -1 -14 5 -14 6 0 7 -4 4
-10 -3 -5 -1 -10 4 -10 6 0 11 -7 11 -15 0 -8 5 -15 11 -15 5 0 7 -4 4 -10 -3
-5 -1 -10 4 -10 6 0 11 -7 11 -15 0 -8 5 -15 10 -15 6 0 10 -5 10 -11 0 -6 11
-20 24 -30 13 -10 27 -30 30 -44 4 -14 12 -25 19 -25 6 0 23 -12 36 -26 14
-14 32 -23 41 -21 13 3 16 0 13 -13 -3 -11 2 -19 16 -23 26 -6 26 6 1 58 -16
34 -16 40 -4 43 40 9 63 -44 105 -246 11 -52 12 -54 40 -50 15 3 26 1 23 -3
-2 -4 9 -10 26 -14 16 -4 38 -17 49 -31 10 -13 23 -24 29 -24 14 0 123 -121
117 -130 -3 -5 12 -19 32 -31 21 -13 49 -35 62 -49 20 -21 23 -22 16 -5 -4 11
-11 36 -15 56 -4 20 -22 61 -40 90 -42 69 -150 261 -150 268 0 14 164 -159
197 -208 21 -31 57 -78 81 -106 24 -27 58 -70 75 -95 17 -25 33 -47 37 -50 3
-3 25 -39 50 -80 24 -41 49 -82 56 -90 6 -8 15 -35 19 -59 5 -28 19 -56 39
-80 18 -20 36 -43 39 -51 4 -8 11 -22 16 -30 28 -44 33 -83 19 -137 l-10 -43
-64 36 c-35 20 -76 39 -91 43 -19 5 -29 16 -35 38 -9 35 -79 103 -106 103 -37
0 -123 -31 -119 -43 2 -7 16 -11 31 -10 14 1 26 -2 26 -8 0 -5 10 -9 23 -9 20
-1 20 -2 4 -11 -23 -13 -13 -29 15 -21 18 4 20 2 15 -17 -5 -20 -2 -21 26 -16
29 5 34 1 60 -40 16 -24 30 -57 33 -72 3 -15 10 -30 16 -34 15 -10 0 -45 -25
-57 -12 -6 -16 -11 -9 -11 7 -1 10 -6 7 -11 -4 -6 10 -27 29 -46 20 -20 36
-39 36 -42 0 -4 14 -21 30 -39 33 -35 37 -49 18 -56 -8 -4 -7 -6 4 -6 12 -1
19 -15 25 -53 5 -29 7 -57 3 -63 -3 -5 -7 -26 -9 -45 -2 -33 -2 -34 12 -15 9
12 17 30 19 40 1 11 7 23 12 26 13 10 46 -2 46 -17 0 -8 6 -14 13 -14 7 0 30
-21 52 -47 22 -26 52 -60 66 -75 15 -15 35 -40 45 -56 30 -47 155 -181 174
-187 16 -5 34 -38 31 -58 -1 -4 6 -10 14 -13 8 -4 15 -12 15 -19 0 -7 7 -15
15 -19 8 -3 23 -22 32 -43 9 -21 26 -48 37 -60 11 -13 17 -26 13 -29 -3 -3
-34 21 -69 54 -72 70 -124 107 -179 129 -34 13 -40 20 -45 55 -9 55 -66 110
-108 106 l-31 -3 -1 -77 c-1 -43 2 -75 6 -73 5 3 13 -15 18 -39 11 -52 55
-114 88 -122 28 -7 38 -31 22 -52 -9 -10 -9 -13 -1 -9 7 5 14 -4 18 -22 3 -17
15 -41 26 -55 11 -14 21 -39 22 -56 1 -22 7 -30 21 -30 10 0 27 -11 38 -25 11
-14 23 -23 28 -20 4 3 10 -5 14 -18 5 -18 8 -20 16 -7 8 12 10 10 10 -9 0 -14
14 -36 35 -55 19 -18 35 -38 35 -45 0 -6 7 -14 15 -17 8 -4 15 -15 15 -25 0
-10 6 -19 14 -19 20 0 78 -68 212 -250 43 -58 83 -112 91 -120 33 -36 93 -133
93 -150 0 -29 11 -50 27 -50 8 0 11 -4 8 -10 -3 -5 -2 -10 3 -10 5 0 12 -11
14 -25 3 -13 2 -22 -3 -20 -4 3 -10 -1 -12 -7 -3 -8 -89 72 -209 193 -111 113
-221 221 -243 240 -22 19 -51 48 -63 64 l-24 30 6 -36 c7 -48 16 -70 38 -93
10 -11 18 -24 18 -29 0 -4 7 -15 15 -24 11 -11 14 -26 10 -55 -4 -27 -3 -38 4
-33 14 8 14 -8 0 -22 -16 -16 -2 -34 19 -26 15 6 15 5 3 -10 -12 -15 -11 -17
5 -18 18 -1 18 -1 0 -6 -14 -4 -16 -7 -6 -13 7 -4 9 -13 5 -19 -5 -9 -10 -9
-20 -1 -10 8 -15 6 -20 -10 -7 -22 7 -66 33 -108 12 -19 17 -20 30 -10 12 10
14 10 8 1 -4 -7 -2 -13 3 -13 6 0 11 -6 11 -12 0 -7 12 -24 25 -37 14 -13 25
-27 25 -33 0 -5 5 -6 10 -3 6 3 10 -1 10 -10 0 -10 11 -26 24 -36 14 -11 30
-35 36 -54 6 -19 15 -35 20 -35 5 0 11 -8 14 -18 8 -25 108 -132 124 -132 6 0
12 -7 12 -16 0 -15 59 -96 87 -120 7 -6 29 -37 48 -70 20 -32 39 -57 42 -56 4
2 14 -10 22 -26 9 -16 35 -55 59 -85 23 -31 42 -60 42 -65 0 -5 7 -15 15 -22
8 -7 15 -23 15 -36 0 -12 5 -26 12 -30 7 -5 4 -10 -11 -16 -12 -4 -19 -12 -16
-18 3 -5 -3 -10 -14 -10 -12 0 -21 -3 -21 -7 0 -5 -72 -7 -161 -7 -145 2 -160
0 -153 -15 3 -9 9 -27 12 -41 3 -13 11 -30 18 -37 18 -18 92 -211 114 -298 30
-116 44 -267 36 -395 -9 -157 -10 -164 -18 -170 -4 -3 -9 -21 -12 -40 -7 -49
-17 -81 -35 -110 -13 -20 -13 -23 -1 -15 9 6 6 -5 -8 -29 -12 -20 -22 -44 -22
-52 0 -8 -4 -14 -8 -14 -4 0 -16 -20 -26 -45 -11 -25 -23 -45 -29 -45 -5 0 -7
-7 -3 -15 3 -8 0 -20 -7 -27 -21 -21 -77 -106 -77 -116 0 -5 -9 -12 -20 -15
-11 -3 -27 -21 -35 -41 -9 -20 -20 -36 -25 -36 -6 0 -10 -7 -10 -15 0 -8 -5
-15 -10 -15 -6 0 -16 -11 -22 -25 -6 -13 -19 -27 -30 -30 -10 -4 -18 -13 -18
-21 0 -8 -5 -14 -10 -14 -6 0 -20 -9 -32 -20 -12 -11 -28 -20 -35 -20 -7 0
-13 -5 -13 -11 0 -8 -5 -7 -16 2 -14 11 -15 10 -12 -7 2 -12 -2 -18 -11 -16
-8 2 -11 -3 -8 -13 4 -9 1 -15 -8 -15 -7 0 -23 -12 -34 -26 -11 -14 -24 -23
-30 -20 -5 3 -12 -1 -15 -9 -3 -8 -9 -14 -13 -13 -14 4 -53 -13 -53 -23 0 -5
-9 -9 -20 -9 -11 0 -20 -5 -20 -10 0 -6 -12 -15 -26 -20 -17 -7 -24 -15 -20
-25 4 -12 -3 -15 -31 -15 -30 0 -34 -2 -23 -15 9 -11 10 -15 1 -15 -7 0 -19
-7 -28 -15 -8 -8 -19 -13 -24 -9 -5 3 -12 -2 -15 -10 -3 -9 -10 -14 -14 -11
-4 3 -10 -2 -14 -10 -3 -8 -12 -15 -21 -15 -8 0 -15 -4 -15 -10 0 -5 -7 -10
-15 -10 -9 0 -18 -7 -21 -15 -4 -8 -14 -15 -24 -15 -10 0 -20 -5 -22 -12 -2
-6 -13 -12 -24 -13 -10 -1 -35 -9 -54 -18 -19 -8 -39 -13 -44 -10 -5 4 -6 1
-2 -5 4 -7 1 -12 -8 -12 -9 0 -16 -4 -16 -10 0 -5 -7 -7 -15 -4 -9 4 -15 0
-15 -7 -1 -9 -6 -7 -16 6 -16 19 -16 19 -12 -7 5 -29 -12 -44 -30 -26 -8 8
-13 7 -18 -5 -4 -10 -17 -17 -33 -17 -15 0 -38 -8 -51 -17 -28 -20 -44 -25
-77 -25 -16 0 -23 -6 -23 -20 0 -10 -4 -17 -9 -13 -6 3 -14 -2 -19 -11 -8 -15
-11 -15 -38 2 -16 10 -23 11 -16 4 16 -18 15 -27 -2 -33 -10 -4 -13 -1 -9 9 3
7 0 14 -7 14 -6 0 -14 -9 -17 -20 -3 -11 -13 -20 -22 -20 -10 0 -26 -6 -36
-14 -11 -8 -25 -12 -32 -9 -7 3 -13 0 -13 -7 0 -8 -9 -10 -25 -6 -14 4 -25 2
-25 -4 0 -5 -8 -10 -18 -10 -10 0 -24 -9 -31 -19 -8 -11 -20 -17 -27 -14 -12
4 -92 -33 -104 -49 -3 -4 -15 -9 -25 -11 -11 -1 -35 -10 -54 -20 -18 -9 -36
-15 -40 -13 -3 2 -19 -5 -36 -15 -54 -33 -109 -56 -165 -70 -30 -7 -66 -20
-80 -29 -14 -9 -41 -17 -60 -19 -19 -2 -54 -11 -77 -22 -42 -19 -122 -28 -94
-10 7 5 11 13 7 19 -8 14 45 52 68 48 10 -1 22 -9 27 -17 8 -12 12 -11 24 5 8
11 15 28 15 37 0 31 11 48 28 42 11 -5 14 -2 9 10 -4 12 -2 14 10 10 8 -3 19
0 23 8 6 9 25 13 54 11 31 -1 46 3 46 11 1 6 25 39 55 72 l53 60 34 -16 c59
-28 104 16 115 114 7 54 6 54 53 58 19 2 38 11 42 19 5 8 5 0 2 -18 -5 -31 -5
-32 30 -32 l36 0 0 55 c0 41 4 57 15 61 10 4 13 13 10 25 -5 14 0 22 20 29 16
6 23 14 19 22 -4 7 -3 8 4 4 7 -4 22 0 34 8 12 9 31 16 42 16 27 0 8 -17 -23
-22 -14 -1 -27 -10 -29 -18 -4 -12 -2 -13 10 -3 11 10 21 10 47 0 27 -10 33
-9 42 3 10 16 8 88 -4 107 -8 12 18 73 30 73 4 0 15 -7 25 -17 11 -9 18 -11
18 -5 0 7 -4 12 -10 12 -14 0 -12 38 3 56 6 8 25 27 41 42 134 124 157 141
201 144 14 1 25 8 25 15 0 7 14 25 30 40 17 15 29 32 26 39 -3 7 2 18 10 24 8
7 14 18 14 25 0 7 16 42 37 77 71 124 106 208 87 208 -5 0 -31 -40 -57 -88
-80 -143 -108 -179 -162 -208 -27 -16 -90 -54 -138 -87 -49 -32 -122 -77 -163
-99 -41 -22 -77 -46 -81 -53 -10 -16 -139 -95 -156 -95 -7 0 -35 -23 -62 -50
-27 -27 -55 -50 -62 -50 -7 0 -13 -3 -13 -8 0 -4 -27 -22 -60 -40 -33 -19 -84
-56 -112 -84 -29 -28 -77 -67 -106 -85 -30 -19 -61 -42 -71 -52 -40 -40 -181
-97 -181 -73 0 6 -8 9 -17 7 -11 -1 -17 -9 -15 -19 3 -15 -2 -16 -35 -10 -21
4 -48 11 -60 15 -16 6 -23 5 -23 -4 0 -7 -9 -13 -20 -14 -11 -1 -20 2 -20 8 0
5 -8 9 -17 9 -13 0 -14 3 -5 12 17 17 15 38 -3 38 -8 0 -15 -7 -15 -15 0 -37
-68 -5 -84 40 -5 15 -9 16 -15 6 -6 -9 -9 -5 -8 13 0 15 4 23 10 19 7 -4 8 0
4 12 -4 9 -3 23 1 29 5 6 12 31 16 56 4 24 12 50 18 57 6 8 8 31 5 54 -3 23
-1 53 5 68 6 14 10 30 9 34 -1 5 4 24 11 43 9 25 9 40 2 52 -12 19 -7 82 7 82
5 0 9 7 9 15 0 8 -5 15 -10 15 -6 0 -8 10 -5 23 3 12 7 36 9 52 2 17 6 37 9
45 3 8 8 42 12 75 3 32 11 62 17 66 6 4 8 15 4 24 -4 10 0 25 7 34 8 9 17 29
21 44 4 15 11 25 15 22 9 -5 22 64 23 127 0 22 6 39 14 42 8 3 14 19 14 39 0
19 3 37 7 41 4 4 8 25 9 47 1 22 7 45 12 52 6 7 13 29 16 49 12 74 46 181 86
267 22 48 40 90 40 94 0 14 66 146 103 206 23 36 47 74 52 83 6 9 45 65 89
124 43 60 65 98 50 84 -16 -14 -33 -31 -37 -37 -12 -19 -27 -16 -37 10 -9 19
-10 18 -7 -11 3 -25 0 -32 -11 -27 -9 3 -12 0 -9 -9 6 -15 -9 -37 -150 -227
-50 -68 -104 -142 -120 -164 -20 -27 -36 -39 -49 -37 -10 2 -21 8 -22 13 -2 5
-10 16 -18 24 -8 8 -15 18 -15 22 -1 4 -5 15 -9 23 -7 13 -10 12 -16 -3 -5
-15 -16 -18 -53 -16 -62 3 -69 8 -116 74 -22 31 -59 81 -82 112 -48 62 -51 82
-24 144 35 78 137 155 255 190 75 22 89 27 149 54 20 9 42 13 48 9 6 -3 21 4
35 17 13 12 24 18 24 13 0 -5 6 -2 13 6 21 25 52 38 80 33 15 -3 24 -10 20
-15 -3 -6 0 -9 8 -6 8 3 17 27 22 58 4 30 11 57 15 60 5 3 16 22 25 43 10 20
22 37 27 37 6 0 10 6 10 13 0 7 20 35 45 64 25 28 45 55 45 60 0 8 107 115
141 140 12 10 24 8 57 -8 l42 -21 117 36 c154 48 163 52 163 75 0 11 15 35 33
53 18 18 44 56 57 83 13 28 27 52 31 55 18 13 113 216 124 265 3 17 18 46 33
65 15 19 35 47 45 62 9 15 28 30 42 34 14 3 25 10 25 15 0 5 -11 7 -25 3 -15
-4 -25 -2 -25 5 0 6 -9 11 -20 11 -11 0 -20 4 -20 9 0 5 -13 14 -30 21 -16 7
-30 16 -30 21 0 24 -21 3 -55 -55 -49 -84 -123 -178 -135 -171 -6 3 -39 -8
-74 -24 -35 -17 -71 -31 -80 -31 -9 0 -16 -4 -16 -9 0 -5 -14 -14 -31 -21 -17
-7 -37 -20 -46 -28 -8 -8 -22 -15 -31 -16 -9 -1 -35 -11 -57 -23 -23 -12 -59
-25 -80 -28 -22 -4 -44 -10 -49 -13 -6 -3 -19 -6 -30 -7 -22 -2 -99 -20 -152
-36 -35 -10 -244 -11 -244 -1 0 4 -25 8 -55 8 -30 1 -55 -3 -55 -7 0 -5 -11
-9 -24 -9 -13 0 -26 -6 -29 -12 -3 -10 -9 -10 -25 -1 -17 10 -27 10 -47 1 -19
-9 -28 -9 -37 0 -7 7 -20 12 -30 12 -10 0 -18 8 -19 18 0 12 -4 9 -12 -9 -11
-24 -14 -25 -26 -11 -13 13 -15 13 -22 -4 -6 -15 -8 -16 -8 -3 -2 41 -93 59
-130 25 -9 -8 -34 -19 -56 -25 -41 -11 -95 -53 -95 -74 0 -7 -4 -6 -10 3 -8
12 -10 11 -10 -7 0 -24 -14 -31 -25 -12 -4 6 -13 8 -21 5 -8 -3 -14 0 -15 7 0
7 -4 3 -9 -8 -8 -18 -9 -18 -9 -2 -1 10 -5 16 -10 13 -5 -3 -14 1 -21 9 -7 8
-21 15 -32 15 -11 0 -28 5 -39 10 -13 8 -19 7 -19 0 0 -11 -49 -3 -64 11 -5 4
-21 0 -35 -10 -14 -10 -34 -21 -43 -24 -10 -4 -18 -13 -18 -22 0 -10 -7 -15
-17 -13 -11 2 -18 -3 -18 -14 0 -24 -15 -36 -50 -40 -16 -2 -32 -6 -35 -10 -3
-4 -23 4 -44 19 -31 20 -54 27 -112 30 -41 3 -74 1 -74 -4 0 -5 -16 -17 -35
-26 -19 -9 -46 -34 -61 -57 -26 -38 -34 -44 -61 -41 -7 1 -13 -4 -13 -12 0
-10 -8 -13 -27 -10 -20 3 -24 2 -15 -5 11 -7 6 -12 -20 -22 -18 -7 -39 -12
-46 -11 -8 1 -19 -2 -25 -7 -11 -9 -70 -42 -140 -79 -15 -8 -35 -16 -43 -17
-9 -1 -19 -7 -22 -12 -9 -11 -172 -12 -189 -1 -8 5 -13 4 -13 -3 0 -7 -8 -9
-19 -5 -11 3 -22 1 -26 -5 -3 -5 -12 -10 -18 -10 -7 0 -6 4 3 11 11 8 9 9 -10
4 -42 -12 -47 -24 -21 -46 13 -11 30 -18 38 -15 7 3 13 2 13 -2 0 -13 -15 -28
-33 -35 -10 -4 -16 -11 -13 -16 4 -5 -2 -12 -11 -15 -10 -3 -3 -4 15 -2 38 3
43 -9 6 -18 -27 -7 -58 9 -48 25 7 12 1 11 -71 -6 -33 -8 -74 -15 -91 -15 -26
0 -33 -5 -38 -25 -9 -34 -2 -43 46 -65 35 -16 37 -18 17 -23 -12 -3 -30 -2
-40 3 -18 10 -135 8 -145 -2 -3 -4 7 -9 23 -12 15 -4 37 -8 48 -11 119 -28
225 -48 294 -55 47 -6 95 -17 108 -25 13 -9 28 -13 33 -10 6 4 13 -1 16 -9 3
-9 12 -16 19 -16 7 0 15 -7 18 -15 4 -8 25 -24 48 -35 55 -29 204 -180 255
-260 23 -36 57 -103 75 -150 19 -47 38 -88 43 -91 5 -4 5 -20 1 -35 -4 -16 -9
-45 -11 -64 -3 -19 -9 -39 -14 -44 -15 -15 -12 -26 8 -26 19 1 112 80 93 80
-6 0 -17 11 -23 25 -6 14 -17 25 -23 25 -7 0 -12 13 -13 28 0 15 -8 47 -18 70
-9 24 -14 45 -12 47 3 3 27 -15 54 -40 45 -42 84 -58 84 -36 0 6 15 4 33 -4
17 -7 36 -13 40 -13 24 0 66 -27 76 -50 10 -21 10 -39 0 -85 -12 -54 -15 -58
-37 -52 -25 6 -24 5 16 -40 6 -7 12 -18 12 -24 0 -6 4 -11 9 -11 13 0 81 -65
81 -77 0 -6 7 -16 15 -23 12 -10 15 -10 15 1 0 7 12 -2 28 -20 15 -19 27 -41
27 -50 0 -9 5 -16 10 -16 18 0 34 -16 29 -28 -2 -7 10 -31 29 -52 40 -49 87
-137 87 -166 0 -15 4 -19 16 -15 12 5 14 1 9 -15 -5 -14 -3 -19 3 -15 16 10
31 -25 25 -57 -3 -16 -1 -27 6 -27 6 0 11 -4 11 -10 0 -5 9 -19 20 -30 14 -14
18 -27 14 -50 -5 -25 -4 -29 9 -24 19 7 27 -18 23 -73 -4 -47 6 -69 25 -58 9
6 11 3 6 -9 -8 -21 12 -56 33 -57 10 0 11 -2 3 -6 -19 -7 -15 -31 5 -29 12 1
16 -5 14 -22 -2 -12 4 -30 14 -39 12 -12 13 -18 4 -21 -9 -3 -9 -6 1 -13 11
-7 9 -9 -7 -9 -11 0 -21 -6 -21 -14 0 -8 6 -12 12 -10 7 3 18 -2 25 -11 10
-12 10 -15 -1 -15 -10 -1 -8 -4 4 -11 12 -7 17 -22 16 -52 0 -33 -2 -38 -9
-22 -5 11 -9 14 -9 8 -1 -21 -21 -14 -21 7 0 13 -7 20 -19 20 -10 0 -21 8 -25
18 -3 9 -8 22 -11 28 -3 7 2 20 12 30 17 17 17 18 -2 10 -11 -5 -30 -11 -43
-14 -23 -5 -47 -36 -38 -51 3 -4 -1 -17 -9 -27 -7 -10 -11 -31 -8 -45 4 -20
-1 -29 -21 -42 -20 -14 -24 -23 -20 -45 4 -22 0 -30 -23 -45 -15 -10 -20 -16
-10 -13 15 5 16 3 6 -17 -25 -47 -89 -90 -75 -49 5 15 4 15 -6 2 -13 -15 -58
-23 -58 -10 0 11 -83 -13 -99 -28 -9 -8 -17 -10 -23 -4 -6 6 -23 6 -41 2 -18
-5 -70 -11 -117 -14 -82 -6 -126 -10 -217 -21 -76 -10 -112 21 -183 156 -41
77 -101 182 -109 189 -3 3 -7 12 -9 20 -2 8 -10 30 -18 48 -8 18 -13 36 -9 41
3 5 0 11 -6 13 -7 2 -13 17 -15 34 -1 16 -5 47 -8 68 -2 22 -1 48 4 57 7 12 5
21 -5 29 -11 9 -13 28 -9 83 3 40 10 74 15 75 5 2 9 12 9 22 0 28 27 107 56
164 17 34 22 52 14 60 -14 14 -22 2 -53 -79 -39 -102 -55 -160 -70 -255 -15
-94 -14 -141 3 -245 6 -38 12 -79 14 -90 1 -11 10 -37 19 -59 9 -21 17 -45 17
-52 0 -8 9 -31 20 -51 11 -21 20 -43 20 -50 0 -7 5 -13 10 -13 6 0 10 -6 10
-14 0 -8 6 -16 14 -19 7 -3 28 -31 46 -62 46 -80 142 -179 203 -210 29 -15 59
-30 67 -34 43 -23 113 -51 128 -51 10 0 22 -4 28 -10 8 -8 72 -33 147 -57 9
-3 17 0 17 6 0 7 21 11 53 11 47 0 59 -4 95 -35 39 -34 41 -35 51 -16 16 29
13 51 -6 51 -14 0 -15 2 -4 9 8 5 26 4 45 -4 17 -7 53 -15 80 -17 33 -2 52 -9
60 -21 14 -22 -8 -39 -42 -30 -12 3 -29 0 -36 -6 -11 -9 -15 -9 -18 0 -3 8 -9
9 -19 4 -8 -5 -29 -11 -48 -12 -19 -1 -39 -9 -43 -18 -5 -8 -20 -15 -32 -15
-13 0 -26 -7 -30 -15 -3 -10 -15 -14 -36 -11 -16 2 -30 0 -30 -4 0 -5 -9 -6
-20 -3 -13 4 -26 -1 -34 -13 -10 -13 -17 -15 -27 -8 -21 16 -99 16 -105 -1 -3
-8 -12 -11 -20 -8 -9 3 -13 12 -9 22 3 9 -5 3 -18 -13 -16 -20 -26 -25 -31
-18 -8 14 -67 6 -77 -10 -4 -5 -9 -6 -12 -1 -8 12 -81 7 -85 -6 -2 -6 -10 -11
-18 -11 -7 0 -11 6 -8 14 4 11 -1 14 -23 12 -15 -1 -34 2 -40 7 -9 6 -18 5
-26 -2 -8 -6 -17 -8 -20 -4 -4 3 -13 0 -21 -6 -10 -9 -16 -9 -21 -1 -4 6 -17
10 -28 8 -12 -1 -28 1 -35 6 -9 5 -18 1 -27 -10 -14 -18 -14 -18 -15 1 -1 11
-4 15 -7 8 -3 -8 -11 -9 -21 -4 -25 12 -85 32 -102 34 -8 1 -14 -5 -14 -14 2
-25 -34 -11 -38 14 -2 11 -9 22 -16 23 -7 1 -8 0 -2 -3 5 -2 8 -9 4 -14 -3 -5
-11 -6 -17 -2 -6 4 -29 6 -50 4 -21 -1 -45 3 -53 9 -9 8 -14 9 -14 2 0 -6 -12
-4 -30 5 -24 12 -34 12 -45 3 -9 -7 -15 -8 -15 -2 0 5 -16 13 -35 16 -19 4
-35 11 -35 16 0 5 -7 7 -15 4 -8 -4 -17 1 -21 10 -7 19 -34 22 -35 4 0 -10 -2
-10 -6 -1 -3 8 -14 11 -29 7 -15 -4 -24 -2 -24 5 0 6 -10 11 -23 11 -20 0 -98
35 -147 65 -8 5 -26 8 -40 7 -21 -2 -22 -1 -10 8 12 9 9 10 -14 5 -22 -5 -27
-3 -23 8 4 10 -4 17 -25 21 -16 3 -34 3 -39 0 -5 -3 -9 4 -9 15 0 16 -6 21
-25 21 -14 0 -28 7 -31 15 -4 8 -14 15 -24 15 -9 0 -29 9 -43 20 -14 11 -32
20 -41 20 -9 0 -15 6 -14 13 2 7 -5 11 -16 9 -11 -2 -15 1 -11 7 3 6 -1 11 -9
11 -9 0 -16 5 -16 10 0 6 -7 10 -15 10 -8 0 -15 5 -15 11 0 5 5 7 10 4 18 -11
11 1 -12 21 -14 12 -18 13 -10 3 6 -9 9 -19 5 -22 -11 -12 -21 -7 -26 13 -3
11 -13 20 -24 19 -16 0 -16 -1 2 -9 18 -8 17 -9 -6 -7 -17 1 -25 6 -22 14 3 7
0 13 -5 13 -6 0 -17 12 -24 27 -8 16 -21 27 -31 27 -9 -1 -15 3 -14 9 1 7 -8
13 -19 15 -12 2 -34 16 -49 33 -16 16 -35 29 -42 29 -8 0 -12 4 -9 8 3 5 -13
22 -34 38 -22 16 -42 37 -46 47 -3 9 -11 17 -18 17 -8 0 -16 14 -20 31 -3 18
-10 28 -17 24 -6 -4 -13 2 -16 14 -3 11 -9 18 -14 15 -5 -3 -9 -2 -9 3 0 4
-16 25 -35 46 -19 21 -35 45 -35 53 0 8 -4 14 -8 14 -5 0 -9 6 -9 13 -1 6 -11
48 -23 92 -53 195 -71 291 -73 402 -1 62 -6 113 -11 113 -4 0 -5 7 -2 16 3 8
2 13 -3 10 -4 -3 -14 -66 -21 -141 -16 -156 -3 -138 -160 -221 -32 -17 -71
-29 -91 -29 -25 0 -35 -4 -32 -13 3 -7 0 -10 -8 -7 -8 2 -41 6 -74 9 -50 4
-64 10 -84 32 -14 17 -19 30 -12 32 6 2 11 8 11 14 0 5 9 23 21 39 11 16 18
29 14 29 -3 0 -41 -26 -83 -58 -141 -105 -189 -125 -306 -124 -52 0 -73 4 -81
16 -7 9 -17 16 -22 16 -8 0 -11 65 -3 80 1 3 2 9 1 13 -1 5 3 26 9 48 6 21 15
67 20 102 8 62 12 79 23 107 6 18 19 108 19 133 -1 10 5 20 11 23 7 2 13 29
15 61 2 32 7 62 13 69 5 6 6 14 2 18 -4 4 -2 10 4 14 6 4 12 23 14 42 2 19 5
39 8 44 2 5 6 27 7 49 2 21 8 45 14 51 5 7 7 16 3 19 -3 4 1 15 11 25 9 11 14
26 10 35 -4 11 0 19 10 23 9 3 13 10 10 15 -3 6 -1 16 5 23 6 7 9 21 5 30 -3
9 -2 16 3 16 5 0 15 24 22 53 7 28 21 74 32 100 11 27 18 55 15 62 -2 7 0 17
6 23 8 8 8 15 -1 25 -9 11 -8 17 4 27 18 15 21 55 3 44 -8 -5 -9 -2 -5 9 4 11
1 17 -8 17 -23 0 -18 22 10 45 22 17 24 24 17 50 -5 17 -7 46 -5 65 3 19 5 46
5 58 0 19 4 23 21 18 29 -7 47 20 33 50 -6 13 -15 24 -19 24 -5 0 -6 4 -2 9 3
5 1 12 -5 16 -6 4 -7 11 -4 17 5 8 -13 9 -61 5 -38 -4 -73 -3 -79 1 -6 5 -35
6 -64 4 -71 -5 -87 -30 -86 -124 2 -79 -7 -84 -69 -43 -20 14 -37 23 -37 20 0
-3 14 -33 31 -66 l31 -59 -65 -133 c-36 -72 -78 -172 -95 -222 -43 -129 -92
-259 -101 -268 -5 -5 -15 -2 -23 6 -8 8 -26 15 -39 16 -32 0 -145 20 -191 33
-35 10 -52 28 -27 28 5 0 8 4 4 9 -10 17 7 92 19 88 8 -3 11 5 8 24 -3 19 2
37 13 49 10 11 13 20 7 20 -7 0 -3 15 9 35 12 19 17 35 13 35 -4 0 2 10 13 23
17 18 20 33 18 85 -2 34 1 62 6 62 5 0 8 10 7 23 0 12 11 51 25 86 15 36 27
68 27 73 0 5 9 28 20 50 11 23 20 50 20 60 0 10 5 18 10 18 6 0 10 6 10 13 1
6 9 30 20 52 11 22 19 47 20 56 0 9 9 24 20 34 11 10 20 23 20 30 0 6 11 22
25 35 l24 23 17 -39 c41 -94 38 -91 45 -48 4 25 2 46 -7 60 -8 11 -11 24 -8
27 4 4 -1 9 -10 13 -9 3 -16 12 -16 20 0 7 6 11 13 9 9 -4 12 12 12 61 -1 37
2 91 5 121 4 30 1 68 -5 86 -9 25 -12 74 -6 95 1 1 10 -2 22 -9 19 -10 20 -8
14 10 -3 12 -2 21 3 21 10 0 9 45 -1 70 -3 8 -11 40 -17 72 -10 50 -15 58 -45
72 -19 9 -60 20 -92 24 l-58 7 -29 60 c-15 33 -32 68 -37 77 -5 10 -9 30 -9
45 -1 16 -7 39 -14 52 -11 20 -14 21 -19 7 -4 -9 -2 -27 2 -40 15 -38 20 -86
10 -92 -5 -3 -7 -9 -5 -13 3 -4 7 -18 10 -32 5 -29 55 -119 66 -119 4 0 6 -25
4 -55 -3 -51 -7 -60 -69 -132 -81 -97 -159 -214 -238 -357 -105 -192 -124
-206 -189 -140 -28 27 -36 44 -36 72 -1 44 36 201 52 222 22 30 44 76 51 108
3 17 10 32 14 32 4 0 8 16 9 36 1 20 6 42 13 50 6 7 8 18 4 24 -3 6 1 24 9 42
9 17 16 39 16 49 0 10 5 21 10 24 6 3 10 15 10 26 0 10 4 19 9 19 5 0 13 10
17 23 3 12 14 30 23 41 9 10 15 20 13 22 -4 5 27 113 39 136 5 10 9 22 9 28 0
5 10 21 21 34 12 14 27 35 33 48 15 31 46 34 75 7 l24 -23 -6 25 c-22 87 -28
132 -20 138 11 6 28 77 24 99 -1 6 3 12 9 12 6 0 8 5 5 10 -3 6 -8 56 -9 113
-2 56 -11 142 -20 190 -22 114 -16 142 12 51 13 -41 32 -80 47 -94 29 -27 42
-22 25 11 -11 19 -10 21 4 16 11 -5 16 -1 16 13 0 10 -4 21 -9 24 -12 8 -10
77 2 94 5 6 6 12 1 12 -5 0 -3 4 5 9 9 6 11 15 6 27 -5 11 -9 22 -9 26 -2 19
-47 38 -73 32 -41 -10 -95 -39 -117 -63 -20 -22 -23 -74 -7 -129 5 -18 6 -30
1 -27 -14 9 -168 -144 -230 -229 -32 -44 -73 -100 -90 -123 -22 -31 -35 -41
-47 -36 -24 9 -91 81 -100 107 -10 31 -4 147 8 162 6 7 13 31 15 53 2 22 13
55 24 73 11 18 20 43 20 56 0 12 5 22 10 22 6 0 10 5 10 12 0 6 6 19 14 27 7
9 26 41 42 71 16 30 35 61 42 70 31 35 91 149 98 186 4 21 14 55 22 74 9 19
16 40 17 45 2 20 27 70 42 87 9 10 12 18 8 18 -4 0 4 11 18 24 14 13 23 26 20
29 -3 4 2 13 11 22 9 9 14 21 10 26 -3 5 2 12 10 15 9 3 16 12 16 19 0 7 7 15
15 19 8 3 15 12 15 20 0 29 21 27 50 -6 l30 -33 -6 65 c-11 126 -26 199 -46
225 -10 14 -22 46 -25 72 -4 42 -3 46 11 34 9 -8 16 -21 16 -30 1 -9 9 -34 20
-56 l19 -40 1 34 c0 24 4 32 14 28 9 -4 12 2 9 21 -8 65 -10 124 -3 113 5 -9
9 -8 15 6 5 10 9 20 9 23 1 3 5 11 9 18 5 7 3 12 -5 12 -10 0 -10 2 -1 8 17
10 13 51 -8 86 -16 26 -16 32 -4 57 12 21 26 30 67 39 86 19 227 23 323 11
135 -18 305 -63 305 -81 0 -3 6 -7 13 -7 6 0 32 -9 57 -20 25 -11 52 -23 61
-26 12 -4 15 -14 12 -34 l-4 -28 18 28 c10 15 21 27 25 27 5 0 8 6 8 13 0 7
14 23 30 37 17 14 30 29 30 34 0 18 147 179 352 386 204 205 336 326 478 436
328 253 716 403 1185 458 87 10 382 4 481 -9z m2634 -1011 c0 -8 -5 -12 -10
-9 -6 4 -8 11 -5 16 9 14 15 11 15 -7z m354 -839 c5 -42 4 -46 -5 -25 -6 14
-19 43 -30 65 -10 22 -19 56 -18 75 l1 35 23 -50 c13 -27 26 -72 29 -100z
m170 3 c51 -41 61 -53 136 -154 33 -45 71 -89 85 -98 14 -9 25 -24 25 -33 0
-9 8 -22 17 -29 27 -19 7 -29 -24 -13 -58 31 -63 34 -63 42 0 5 -10 17 -22 27
-13 10 -41 45 -63 78 -21 33 -43 58 -47 56 -5 -3 -13 8 -19 24 -6 17 -17 33
-24 36 -8 3 -23 23 -35 45 -32 63 -27 66 34 19z m16 -113 c0 -8 -2 -15 -4 -15
-2 0 -6 7 -10 15 -3 8 -1 15 4 15 6 0 10 -7 10 -15z m-7154 -171 c-4 -9 -9
-15 -11 -12 -3 3 -3 13 1 22 4 9 9 15 11 12 3 -3 3 -13 -1 -22z m-42 -71 c-15
-27 -35 -59 -44 -73 -34 -52 -87 -150 -162 -300 -57 -114 -77 -147 -77 -127
-1 43 55 165 143 312 115 191 144 234 159 235 4 0 -4 -21 -19 -47z m7507 -13
c10 0 19 -4 19 -10 0 -5 7 -10 15 -10 8 0 15 -6 15 -13 0 -7 19 -36 43 -64
128 -153 229 -304 213 -320 -3 -4 -7 -4 -9 -2 -1 2 -21 26 -42 53 -22 28 -51
69 -65 92 -14 23 -68 88 -120 144 -106 114 -114 125 -104 142 6 9 9 9 12 0 2
-7 12 -12 23 -12z m-109 -549 l-9 -26 -12 23 c-7 13 -9 36 -5 58 l7 37 14 -33
c9 -22 11 -42 5 -59z m-6897 -72 c3 -74 2 -97 -5 -81 -21 49 -25 210 -5 190 3
-2 7 -51 10 -109z m7086 39 c22 -24 49 -61 61 -83 29 -56 101 -147 174 -219
16 -17 55 -60 85 -96 30 -35 60 -71 67 -78 6 -7 12 -19 12 -27 0 -7 7 -16 15
-19 9 -3 22 -20 30 -39 7 -18 22 -41 34 -51 11 -10 22 -30 26 -45 3 -14 18
-40 33 -56 48 -53 81 -102 74 -110 -4 -3 1 -13 11 -20 10 -7 14 -16 9 -19 -12
-7 -42 3 -42 14 0 5 -6 15 -13 22 -7 7 -33 42 -58 78 -65 97 -122 171 -239
313 -216 263 -270 334 -305 398 -19 37 -35 70 -35 73 0 17 25 2 61 -36z m129
-38 c0 -5 -4 -10 -10 -10 -5 0 -10 5 -10 10 0 6 5 10 10 10 6 0 10 -4 10 -10z
m-7455 -267 c-39 -81 -116 -217 -126 -221 -5 -2 -9 -8 -9 -14 0 -19 -143 -303
-147 -291 -2 6 12 45 32 86 19 42 35 79 35 83 0 12 142 300 168 339 33 50 64
86 70 81 2 -3 -8 -31 -23 -63z m7641 -652 c41 -41 74 -76 74 -77 0 -2 18 -22
40 -44 22 -22 40 -45 40 -50 0 -5 6 -13 14 -17 7 -4 37 -37 66 -73 30 -36 65
-76 79 -90 24 -24 58 -68 134 -171 65 -90 115 -199 90 -199 -5 0 -31 30 -59
67 -27 37 -130 154 -229 259 -99 106 -185 198 -190 206 -6 7 -36 45 -66 83
-31 39 -73 101 -93 139 -20 38 -36 65 -36 60 0 -5 -11 3 -25 18 -14 15 -22 33
-19 42 6 16 45 -17 180 -153z m-7934 87 c-7 -7 -12 -8 -12 -2 0 14 12 26 19
19 2 -3 -1 -11 -7 -17z m762 -158 l6 -45 -19 45 c-25 56 -28 81 -7 60 8 -8 17
-35 20 -60z m116 -25 c0 -2 -3 -11 -6 -19 -5 -13 -9 -14 -20 -5 -8 6 -11 15
-8 21 3 5 0 16 -8 25 -11 14 -8 13 15 -1 15 -10 27 -20 27 -21z m4477 -37 c-3
-8 -6 -5 -6 6 -1 11 2 17 5 13 3 -3 4 -12 1 -19z m68 12 c3 -5 -1 -10 -9 -10
-8 0 -18 5 -21 10 -3 6 1 10 9 10 8 0 18 -4 21 -10z m-4798 -139 c-8 -37 -40
-108 -86 -186 -49 -83 -94 -166 -141 -257 -22 -43 -45 -78 -50 -78 -11 0 36
134 60 170 21 30 98 182 134 263 42 95 95 151 83 88z m2943 -441 c0 -5 -2 -10
-4 -10 -3 0 -8 5 -11 10 -3 6 -1 10 4 10 6 0 11 -4 11 -10z m-6 -39 c-8 -9
-34 10 -34 25 0 16 2 16 19 -2 10 -10 17 -21 15 -23z m-236 -10 c-15 -5 -21 7
-13 26 7 17 8 17 15 -2 4 -11 3 -22 -2 -24z m176 21 c-6 -4 -14 -14 -17 -22
-4 -12 -6 -12 -6 2 -1 9 -9 19 -18 21 -10 3 -2 5 17 6 19 0 30 -3 24 -7z
m-2289 -58 c30 -20 33 -34 5 -27 -11 3 -20 11 -20 17 0 7 -7 13 -15 13 -8 0
-15 -6 -15 -14 0 -7 -4 -13 -10 -13 -14 0 -12 27 3 33 20 9 27 8 52 -9z m-879
-51 c-18 -33 -21 -17 -5 24 6 15 13 23 16 16 2 -6 -3 -24 -11 -40z m730 -305
c-7 -40 -88 -261 -105 -283 -4 -5 -27 -71 -50 -145 -63 -203 -103 -324 -109
-330 -10 -10 9 100 24 142 9 24 18 54 20 68 14 70 66 262 111 405 45 142 126
248 109 143z m3284 -298 c0 -5 -5 -10 -11 -10 -5 0 -7 5 -4 10 3 6 8 10 11 10
2 0 4 -4 4 -10z m-3560 -550 c0 -5 -5 -10 -11 -10 -5 0 -7 5 -4 10 3 6 8 10
11 10 2 0 4 -4 4 -10z m4523 -607 c-7 -3 -13 -9 -13 -14 0 -6 6 -7 13 -3 6 4
9 4 5 -1 -4 -4 -3 -16 2 -25 8 -15 6 -17 -10 -13 -14 4 -20 14 -20 33 0 26 18
45 30 32 3 -2 -1 -7 -7 -9z m-6 -80 c4 -9 1 -19 -5 -21 -7 -2 -12 -10 -12 -18
0 -8 -5 -14 -11 -14 -7 0 -8 7 -4 18 4 9 7 25 7 35 -1 22 17 22 25 0z m-15
-81 c3 -10 -1 -23 -9 -30 -11 -11 -13 -7 -13 18 0 33 15 41 22 12z m-339 -99
c-7 -2 -21 -2 -30 0 -10 3 -4 5 12 5 17 0 24 -2 18 -5z m333 -41 c-6 -5 -36
23 -36 34 0 4 9 -1 20 -11 11 -10 18 -20 16 -23z m-456 -49 c0 -5 -5 -15 -10
-23 -8 -12 -10 -11 -10 8 0 12 5 22 10 22 6 0 10 -3 10 -7z m-275 -453 c-3 -5
-13 -10 -21 -10 -8 0 -12 5 -9 10 3 6 13 10 21 10 8 0 12 -4 9 -10z m385 -70
c0 -5 -5 -10 -11 -10 -5 0 -7 5 -4 10 3 6 8 10 11 10 2 0 4 -4 4 -10z"/>
<path d="M5975 10060 c-3 -5 -1 -10 4 -10 6 0 11 5 11 10 0 6 -2 10 -4 10 -3
0 -8 -4 -11 -10z"/>
<path d="M5920 10050 c0 -5 -8 -10 -18 -10 -10 0 -27 -8 -38 -19 -14 -13 -26
-16 -36 -10 -16 9 -26 -2 -58 -64 -15 -31 -33 -31 -38 0 -4 27 -27 36 -42 17
-7 -8 -19 -14 -27 -14 -8 0 -11 -5 -8 -10 5 -8 11 -7 21 1 11 9 14 9 14 -1 0
-10 3 -10 15 0 13 11 15 8 15 -13 0 -19 4 -25 15 -21 10 4 15 0 16 -12 1 -15
2 -14 7 4 7 21 8 21 29 7 13 -9 20 -22 17 -30 -4 -10 0 -15 14 -15 12 0 24 -4
27 -10 10 -16 22 -12 28 9 2 10 16 20 31 23 22 5 25 2 20 -17 -5 -19 -2 -21
25 -17 17 2 31 8 31 13 0 5 5 9 10 9 6 0 10 -6 10 -14 0 -25 42 -68 61 -63 11
3 19 1 19 -4 0 -5 -27 -9 -60 -9 -33 0 -60 -4 -60 -9 0 -13 107 -6 125 9 16
13 5 31 -25 43 -8 3 4 6 28 6 23 1 42 6 42 11 0 6 -4 10 -10 10 -5 0 -10 9
-10 20 0 11 7 20 15 20 9 0 15 9 15 23 0 18 -2 19 -11 7 -9 -13 -10 -12 -5 3
3 9 9 24 13 33 4 12 2 15 -8 12 -8 -3 -13 -10 -12 -15 3 -18 -27 -10 -32 8 -3
10 -19 21 -35 24 -17 4 -30 13 -30 20 0 10 -9 12 -34 8 -37 -6 -66 12 -58 35
2 6 1 12 -2 12 -3 0 -6 -4 -6 -10z m-30 -51 c0 -6 7 -8 16 -5 9 3 12 2 9 -5
-4 -6 -13 -8 -21 -5 -7 3 -16 1 -19 -4 -4 -6 -10 -10 -16 -10 -5 0 -4 9 3 20
14 22 28 26 28 9z m67 -45 c-3 -3 -12 -4 -19 -1 -8 3 -5 6 6 6 11 1 17 -2 13
-5z m153 -37 c0 -5 -4 -6 -9 -3 -5 3 -11 -1 -15 -9 -6 -15 -36 -10 -36 7 0 5
5 6 10 3 6 -3 10 -1 10 4 0 6 -5 11 -11 11 -5 0 -8 4 -5 9 7 10 56 -9 56 -22z
m-225 3 c8 12 72 13 79 1 3 -5 -11 -9 -31 -8 -20 1 -38 -4 -40 -10 -5 -14 -53
4 -53 19 0 5 9 4 19 -2 13 -7 22 -7 26 0z m135 0 c0 -5 -5 -10 -11 -10 -6 0
-8 -7 -5 -17 7 -17 6 -17 -11 0 -16 15 -16 19 -3 27 19 13 30 12 30 0z m69
-56 c-14 -13 -17 -13 -30 2 -12 15 -12 16 9 10 15 -5 22 -3 22 5 0 7 3 9 7 5
4 -3 0 -13 -8 -22z"/>
<path d="M5945 10040 c3 -5 8 -10 11 -10 2 0 4 5 4 10 0 6 -5 10 -11 10 -5 0
-7 -4 -4 -10z"/>
<path d="M6050 10016 c0 -2 7 -6 15 -10 8 -3 15 -1 15 4 0 6 -7 10 -15 10 -8
0 -15 -2 -15 -4z"/>
<path d="M6160 9970 c0 -5 10 -10 23 -10 18 0 19 2 7 10 -19 13 -30 13 -30 0z"/>
<path d="M6140 9942 c0 -4 15 -15 34 -23 24 -11 33 -12 29 -3 -2 6 0 15 6 19
6 3 15 -4 20 -17 7 -17 10 -19 10 -5 1 9 0 20 -1 24 -4 10 -98 15 -98 5z"/>
<path d="M5613 9928 c1 -8 -7 -12 -18 -11 -11 1 -24 -5 -28 -13 -5 -8 -13 -11
-19 -8 -6 4 -18 -2 -26 -12 -13 -18 -14 -17 -8 9 5 20 3 27 -9 27 -8 0 -15 -7
-15 -15 0 -15 -3 -16 -82 -19 -29 0 -50 -6 -53 -14 -3 -8 0 -10 8 -6 9 5 9 4
0 -6 -8 -9 -23 -10 -50 -5 -32 6 -35 9 -18 15 19 8 19 9 -1 9 -23 1 -40 -35
-20 -42 6 -2 8 -7 5 -11 -10 -11 -39 5 -39 23 -1 14 -2 14 -14 -2 -10 -13 -21
-16 -40 -11 -20 5 -35 -1 -64 -22 -20 -15 -43 -36 -50 -46 -7 -10 -18 -15 -24
-12 -6 4 -14 1 -18 -7 -7 -10 -12 -10 -23 -1 -12 10 -16 9 -20 -8 -3 -11 -10
-19 -15 -18 -5 2 -18 -8 -29 -21 -10 -13 -31 -25 -47 -26 -15 -2 -33 -8 -40
-14 -8 -7 -33 -18 -57 -26 -24 -8 -34 -13 -21 -11 26 5 29 -6 6 -25 -13 -10
-17 -10 -24 0 -6 10 -10 9 -19 -5 -9 -17 -10 -17 -11 -2 0 9 -5 20 -11 24 -8
4 -9 -1 -4 -16 6 -18 4 -22 -8 -17 -12 4 -14 2 -10 -11 6 -14 4 -15 -9 -5 -17
15 -29 7 -21 -13 3 -8 -1 -14 -11 -14 -18 0 -22 -16 -6 -23 6 -3 5 -4 -2 -3
-21 5 -63 -21 -77 -47 -10 -18 -21 -25 -40 -24 -19 2 -26 -3 -25 -15 1 -11 -5
-15 -17 -13 -12 3 -25 -6 -36 -21 -9 -14 -22 -23 -29 -20 -9 3 -14 -2 -14 -15
0 -11 -5 -17 -10 -14 -6 3 -13 0 -16 -9 -3 -8 -12 -12 -21 -9 -12 5 -14 1 -8
-15 4 -14 2 -22 -5 -22 -6 0 -15 -11 -20 -25 -5 -14 -15 -25 -22 -24 -10 0
-10 2 0 6 6 2 12 9 12 15 0 6 -6 5 -15 -2 -12 -10 -13 -16 -3 -28 11 -13 10
-15 -4 -9 -13 5 -18 1 -18 -13 0 -10 -9 -22 -20 -25 -14 -4 -19 -13 -16 -23 8
-26 -20 -58 -37 -44 -16 14 -28 6 -20 -14 3 -9 -1 -14 -12 -14 -24 0 -75 -38
-75 -56 0 -8 -7 -17 -15 -20 -8 -4 -15 -12 -15 -19 0 -7 -7 -16 -17 -19 -14
-6 -14 -8 3 -21 18 -14 17 -15 -11 -13 -23 2 -32 -2 -40 -19 -5 -12 -19 -26
-32 -32 -13 -6 -23 -16 -23 -24 0 -7 -9 -20 -20 -30 -11 -9 -20 -25 -20 -35 0
-23 -38 -55 -57 -47 -13 4 -14 3 -4 -9 9 -10 9 -16 1 -21 -6 -4 -9 -13 -6 -21
3 -8 0 -13 -6 -11 -6 1 -15 -9 -19 -23 -4 -14 -7 -19 -8 -12 -1 6 -6 12 -11
12 -6 0 -10 -6 -9 -12 3 -26 -1 -39 -11 -33 -5 3 -10 -3 -10 -15 0 -12 5 -18
10 -15 6 3 10 1 10 -6 0 -6 -8 -9 -20 -6 -22 6 -26 -3 -9 -20 8 -8 7 -17 -2
-34 -7 -13 -14 -53 -15 -89 -2 -36 -3 -67 -3 -69 -1 -2 -8 2 -16 9 -13 11 -13
8 -2 -26 14 -44 15 -63 4 -81 -5 -8 -3 -13 4 -13 9 0 9 -3 0 -14 -16 -19 -9
-98 9 -113 13 -11 11 -12 -10 -13 -20 0 -22 -2 -10 -10 13 -9 13 -12 -2 -24
-19 -14 -24 -46 -8 -46 6 0 10 -16 10 -35 0 -26 -3 -33 -15 -29 -9 4 -15 0
-15 -10 0 -9 -4 -16 -9 -16 -14 0 -1 -271 19 -395 5 -33 14 -96 20 -140 6 -44
17 -105 25 -135 8 -30 16 -80 19 -110 3 -30 10 -73 16 -95 6 -22 15 -58 20
-81 5 -22 16 -59 26 -83 9 -23 14 -44 11 -47 -3 -3 -8 5 -12 18 -4 13 -20 50
-35 83 -15 33 -30 67 -33 75 -10 24 -5 -192 5 -234 15 -63 15 -146 0 -146 -7
0 -11 -4 -7 -9 3 -5 1 -12 -5 -16 -5 -3 -10 -17 -10 -31 0 -13 -4 -24 -8 -24
-4 0 -9 -11 -10 -25 -1 -20 4 -26 26 -31 52 -12 62 -16 57 -23 -2 -4 6 -17 18
-29 28 -26 47 -49 47 -57 0 -3 11 -23 25 -43 14 -20 25 -42 25 -50 0 -7 11
-30 25 -52 14 -22 25 -46 25 -55 0 -8 3 -15 8 -15 20 0 92 -177 92 -228 0 -12
4 -22 10 -22 5 0 7 -7 4 -15 -4 -8 -1 -15 6 -15 20 0 4 -150 -18 -166 -14 -10
-9 -13 33 -19 61 -8 144 -39 205 -77 25 -15 63 -37 84 -49 21 -11 44 -25 50
-30 6 -6 34 -27 62 -47 44 -32 113 -85 177 -138 9 -8 20 -14 23 -14 3 0 22
-17 43 -37 56 -56 114 -98 131 -95 15 4 208 93 244 113 10 6 33 19 50 29 18 9
88 39 156 65 175 66 194 76 198 103 2 12 -1 22 -6 22 -5 0 -22 11 -38 25 -15
13 -42 27 -59 31 -16 3 -35 11 -42 16 -7 5 -18 6 -24 2 -8 -4 -9 -3 -5 4 4 7
1 12 -6 12 -17 0 -68 54 -68 73 0 8 -13 20 -30 27 -16 7 -28 15 -26 19 2 3
-24 6 -57 5 -34 0 -77 4 -97 9 -19 5 -62 11 -95 12 -33 1 -73 7 -90 14 -16 7
-42 15 -57 18 -16 3 -28 10 -28 16 0 6 -3 8 -6 4 -3 -3 -16 3 -28 14 -11 11
-37 27 -56 36 -19 8 -43 19 -52 24 -10 5 -26 9 -35 9 -36 0 -192 92 -193 113
0 5 5 5 12 1 6 -4 8 -3 5 4 -4 5 -17 8 -30 4 -20 -5 -21 -4 -7 13 14 17 13 18
-2 12 -12 -4 -26 2 -43 20 -13 15 -27 24 -31 20 -4 -3 -16 -1 -28 5 -20 11
-20 11 -1 19 17 6 16 8 -8 8 -31 1 -40 7 -103 71 -72 74 -231 330 -204 330 5
0 10 -6 10 -14 0 -8 6 -21 13 -28 7 -7 24 -32 36 -55 14 -25 29 -39 37 -36 9
3 10 10 4 21 -16 31 -24 57 -34 117 -7 38 -16 59 -24 57 -14 -2 -92 77 -92 95
0 7 6 13 13 13 6 0 4 5 -6 11 -14 8 -17 18 -12 36 5 21 3 24 -11 19 -13 -5
-15 -2 -10 18 4 18 1 28 -11 35 -10 6 -13 11 -6 11 13 0 6 30 -8 40 -7 5 -17
69 -18 123 -1 9 -8 17 -16 17 -20 0 -20 47 0 67 8 8 21 13 28 10 7 -2 3 -8
-11 -16 -24 -13 -31 -47 -8 -38 20 8 62 -31 58 -54 -2 -10 2 -19 8 -19 6 0 18
-17 26 -37 9 -21 25 -48 36 -60 11 -12 17 -26 13 -32 -4 -7 4 -11 19 -11 14 0
25 -3 24 -7 -4 -16 13 -51 27 -57 8 -3 15 -13 15 -21 0 -9 -4 -14 -9 -11 -4 3
-8 -15 -7 -39 0 -46 4 -49 53 -48 7 1 10 -3 7 -8 -3 -5 1 -9 9 -9 8 0 21 -8
28 -17 10 -11 10 -14 2 -9 -28 16 -11 -11 26 -42 22 -19 37 -40 35 -47 -3 -7
-1 -16 5 -20 6 -3 20 -26 31 -51 12 -25 31 -55 43 -67 12 -12 22 -27 23 -34 3
-19 38 -62 51 -63 7 0 10 -6 7 -14 -3 -8 4 -16 18 -19 13 -4 29 -20 36 -37 8
-16 17 -28 21 -26 4 3 15 -4 24 -14 11 -13 12 -20 4 -24 -7 -2 -4 -5 6 -5 9
-1 17 -8 17 -17 0 -11 6 -14 20 -9 11 4 20 2 20 -4 0 -6 6 -11 14 -11 8 0 17
-12 20 -26 5 -20 10 -23 20 -15 10 9 15 8 20 -5 5 -13 9 -14 21 -4 11 9 19 7
36 -9 13 -11 25 -18 28 -15 3 3 -1 9 -8 13 -11 7 -9 11 7 20 14 7 23 8 27 1
10 -16 28 -12 21 5 -4 10 1 15 15 15 11 0 18 -4 15 -9 -4 -5 8 -4 25 2 24 9
27 13 13 16 -20 4 -43 29 -43 46 0 6 4 2 10 -7 5 -10 18 -18 27 -18 10 0 22
-4 28 -9 5 -5 19 -12 32 -16 16 -5 22 -2 22 10 0 8 7 18 15 21 8 4 15 10 15
15 0 6 -9 5 -21 -1 -11 -6 -30 -10 -42 -8 -20 3 -19 5 10 18 21 10 28 17 20
22 -8 5 -4 8 11 8 13 0 22 6 22 16 0 10 5 14 15 10 9 -3 18 1 21 8 3 8 14 12
25 9 11 -3 19 0 19 7 0 12 -41 9 -94 -7 -12 -3 -16 -1 -12 6 4 6 16 11 27 11
10 0 19 5 19 10 0 6 -5 10 -11 10 -6 0 -8 8 -4 19 4 14 0 23 -15 31 -25 14
-25 37 0 75 23 35 25 46 7 39 -10 -3 -14 6 -14 33 0 21 2 29 4 18 7 -28 23
-43 23 -22 0 10 10 22 23 27 12 5 16 9 9 9 -7 1 -10 6 -7 11 4 6 15 8 26 5 22
-7 26 13 4 21 -21 8 -19 21 5 27 26 7 26 33 0 40 -13 3 -18 10 -14 21 4 11 0
16 -12 17 -16 0 -15 2 4 10 13 5 20 14 16 20 -4 8 -9 7 -16 -2 -6 -9 -7 -2 -2
21 8 46 15 55 25 39 7 -11 9 -10 9 5 0 12 -5 16 -15 13 -8 -4 -17 -2 -20 3 -4
6 -1 10 4 10 6 0 11 7 11 15 0 9 -6 12 -15 9 -8 -4 -15 -1 -15 5 0 6 9 11 20
11 11 0 20 7 20 15 0 9 -7 15 -16 13 -18 -3 -42 27 -31 38 4 4 14 -1 21 -12 8
-11 18 -15 23 -10 4 5 2 11 -4 13 -17 6 -16 23 1 23 23 0 28 42 6 57 -24 17
-27 45 -5 37 8 -4 15 -12 15 -20 0 -8 9 -14 20 -14 11 0 20 5 20 11 0 5 -4 7
-10 4 -5 -3 -10 1 -10 9 0 9 6 16 14 16 15 0 46 42 46 62 0 9 -3 9 -12 0 -16
-16 -28 -15 -28 3 0 8 -4 15 -10 15 -5 0 -9 10 -9 23 1 15 3 17 6 6 7 -28 43
-11 50 23 4 21 8 26 14 16 6 -10 11 -9 22 6 14 19 24 19 72 1 19 -7 19 -7 1 7
-10 8 -16 20 -12 26 11 17 -25 15 -51 -3 -29 -20 -36 -5 -17 34 16 31 34 34
34 4 0 -13 2 -13 17 -2 13 11 17 11 20 2 3 -7 12 -13 21 -13 15 1 15 2 -1 15
-13 9 -17 20 -12 35 6 20 8 20 24 6 16 -15 17 -14 13 14 -5 34 22 54 40 29 8
-12 9 -11 5 1 -2 8 -14 15 -27 15 -25 0 -38 19 -21 30 6 3 11 15 11 26 0 10 5
19 11 19 13 0 1 42 -15 52 -6 4 -16 1 -23 -8 -6 -9 -16 -13 -22 -9 -7 3 -8 0
-5 -9 7 -19 21 -21 26 -4 3 7 12 9 24 4 17 -7 17 -9 3 -19 -8 -7 -18 -20 -22
-30 -8 -22 -33 -17 -31 5 1 10 -5 14 -17 11 -11 -3 -19 -12 -19 -19 0 -8 -4
-14 -10 -14 -5 0 -10 9 -10 21 0 11 4 18 8 15 4 -2 14 -1 22 5 10 6 11 9 3 9
-7 0 -13 7 -13 15 0 8 4 15 9 15 5 0 14 12 19 28 10 26 10 26 11 3 1 -32 14
-19 16 16 0 15 7 29 13 31 9 3 11 -4 8 -22 -6 -31 14 -35 32 -6 9 15 19 18 44
14 l33 -6 -30 26 c-22 19 -26 25 -13 26 9 0 20 -5 24 -11 3 -6 17 -8 30 -5 14
4 24 2 24 -4 0 -5 -4 -10 -10 -10 -5 0 -10 -5 -10 -11 0 -6 9 -8 20 -4 12 4
26 2 33 -3 7 -5 29 -7 50 -5 31 4 37 9 37 29 0 13 -4 24 -10 24 -5 0 -10 8
-11 18 0 10 -3 12 -6 5 -9 -24 -23 -13 -24 20 0 17 -3 25 -6 17 -3 -8 -11 -18
-17 -22 -8 -6 -7 -11 3 -17 11 -7 11 -9 0 -14 -10 -4 -10 -6 -1 -6 6 -1 12 -8
12 -17 0 -32 -30 -6 -44 39 -3 9 -13 17 -22 17 -10 0 -14 -5 -11 -14 4 -10 1
-13 -8 -9 -10 3 -12 10 -6 20 5 9 6 24 4 34 -4 14 0 16 16 12 12 -3 21 -12 21
-19 0 -8 7 -14 15 -14 18 0 18 5 5 31 -11 20 3 28 15 9 4 -6 11 -7 17 -4 6 4
14 1 18 -6 4 -7 13 -9 19 -5 9 5 9 10 1 20 -19 23 26 29 49 6 10 -10 17 -22
13 -25 -3 -3 8 -6 24 -5 16 0 23 3 16 6 -6 2 -10 9 -7 14 4 5 0 6 -8 3 -8 -3
-23 5 -34 19 -18 24 -22 24 -71 15 -61 -12 -71 -7 -45 21 13 14 23 17 33 11
23 -15 27 -12 43 19 14 27 13 29 -10 29 -19 0 -24 -5 -20 -19 5 -19 -7 -26
-17 -10 -3 4 -17 6 -31 4 -13 -3 -22 -10 -19 -15 4 -6 -3 -5 -15 1 -14 8 -21
8 -21 1 0 -5 -8 -10 -17 -10 -15 0 -16 2 -3 10 11 7 12 12 3 21 -13 13 -33 4
-33 -17 0 -20 -14 -17 -36 7 -16 17 -16 22 -4 29 8 6 18 10 21 10 3 0 6 7 6
15 0 15 -10 19 -34 16 -7 -1 -17 8 -23 19 -11 21 -35 17 -27 -5 4 -8 -5 -12
-25 -13 -29 -1 -30 0 -11 13 14 10 19 22 16 38 -6 29 25 62 63 70 32 6 30 -3
-6 -33 -31 -26 -40 -43 -16 -34 7 3 21 -7 30 -21 16 -25 19 -25 35 -11 10 9
23 16 29 16 7 0 12 4 12 9 0 5 9 13 20 16 11 3 20 10 20 15 0 9 -42 1 -50 -10
-3 -4 -20 -11 -39 -15 -26 -5 -32 -4 -29 6 3 8 12 13 21 11 8 -1 18 2 22 8 3
5 -2 10 -12 10 -15 0 -14 2 4 15 12 9 20 21 17 29 -3 7 2 19 11 26 21 18 19
29 -5 23 -19 -5 -29 11 -12 19 4 2 18 18 31 36 l22 32 -30 0 c-30 0 -39 9 -23
24 4 4 7 13 7 19 0 8 16 11 43 9 36 -2 48 2 72 25 15 16 35 34 44 41 18 15 22
42 5 42 -6 0 -8 -7 -5 -15 3 -10 -1 -18 -12 -22 -9 -4 -22 -13 -28 -21 -7 -9
-16 -12 -24 -7 -10 6 -12 3 -8 -13 5 -17 2 -22 -13 -22 -17 0 -18 3 -9 20 6
11 19 24 30 30 11 6 20 18 21 28 0 10 3 12 6 5 2 -7 9 -13 14 -13 6 0 8 3 5 8
-2 4 2 16 9 26 13 16 16 17 35 3 25 -17 50 -12 50 9 0 17 37 37 53 28 7 -5 7
-1 -2 9 -8 10 -11 20 -7 24 3 3 6 1 6 -5 0 -25 29 -10 35 18 7 31 25 42 25 15
0 -8 5 -15 11 -15 6 0 9 7 5 15 -6 15 3 19 42 15 14 -1 22 4 22 14 0 9 -4 16
-10 16 -21 0 -9 30 15 36 25 6 35 24 14 24 -5 0 -7 5 -3 11 5 8 8 8 14 0 8
-15 60 3 60 20 0 7 10 9 28 5 16 -4 22 -3 14 2 -15 10 -11 74 6 80 6 2 12 -1
12 -7 0 -6 7 -11 15 -11 13 0 13 3 3 21 -10 15 -21 19 -41 16 -20 -2 -26 0
-23 9 3 8 0 11 -10 7 -9 -3 -12 0 -9 9 3 8 -4 23 -16 34 -22 19 -22 19 -14 -5
6 -19 4 -23 -9 -18 -9 4 -21 -2 -29 -13 -8 -11 -17 -17 -20 -14 -3 4 0 13 8
21 17 17 19 33 5 33 -5 0 -10 -6 -10 -14 0 -8 -7 -16 -15 -20 -9 -3 -15 0 -15
8 0 14 -47 19 -55 6 -8 -13 -45 1 -45 16 0 8 -9 14 -19 14 -23 0 -38 19 -24
29 14 9 9 51 -7 61 -9 5 -20 4 -29 -3 -11 -9 -15 -9 -18 1 -3 6 -11 12 -20 12
-10 0 -12 -6 -8 -20 9 -28 -19 -27 -39 1 -9 13 -21 19 -30 16 -10 -4 -16 -1
-16 9 0 12 -7 15 -25 12 -15 -3 -22 -1 -18 5 10 16 10 56 1 51 -5 -3 -10 1
-13 8 -3 7 -20 14 -38 15 -25 2 -29 0 -17 -8 11 -8 9 -9 -9 -4 -15 5 -26 2
-32 -6 -6 -11 -9 -10 -13 4 -17 50 -19 53 -23 35 -3 -10 -11 -18 -19 -18 -17
0 -19 16 -1 23 6 3 -8 6 -33 7 -37 1 -41 3 -22 10 20 8 33 42 15 38 -5 0 -16
2 -26 7 -13 5 -15 11 -7 20 12 15 4 41 -16 49 -8 3 -14 19 -14 36 0 36 -17 73
-30 65 -5 -3 -11 -1 -15 5 -3 5 3 10 14 10 12 0 21 4 21 9 0 12 -78 12 -86 0
-3 -5 -10 -7 -15 -4 -5 4 -16 -1 -25 -10 -15 -15 -18 -14 -30 4 -13 18 -17 18
-42 5 -15 -7 -33 -14 -41 -14 -8 0 -11 -7 -8 -20 4 -15 0 -20 -13 -20 -11 0
-22 5 -25 10 -3 6 -1 10 6 10 7 0 10 11 7 30 -4 29 1 37 16 23 9 -10 56 -11
56 -3 0 4 -18 12 -40 19 -22 6 -40 14 -40 17 0 13 30 34 47 33 15 0 14 -2 -4
-11 -26 -12 -30 -28 -9 -28 8 0 21 -3 30 -6 12 -5 16 0 16 20 0 18 5 26 18 26
10 0 27 7 39 15 12 8 28 12 37 9 17 -7 22 -34 6 -34 -5 0 -10 8 -10 18 0 10
-3 13 -8 7 -4 -6 -18 -16 -32 -23 l-25 -12 30 3 c17 1 35 -4 41 -12 8 -10 14
-6 27 20 l16 34 -32 11 c-31 11 -32 11 -7 16 24 5 24 5 -3 7 -17 0 -26 5 -22
11 4 6 15 8 25 5 10 -3 21 -1 25 5 4 6 -5 11 -22 11 -23 2 -24 2 -6 6 19 4 21
8 13 23 -6 11 -9 25 -8 32 2 7 -3 12 -9 11 -18 -4 -16 12 2 27 21 18 29 6 27
-37 -2 -21 1 -34 5 -29 8 8 9 10 12 44 2 15 3 14 11 -3 7 -18 8 -19 15 -2 4
10 1 25 -6 35 -13 16 -13 16 6 2 11 -8 23 -19 27 -25 4 -5 8 2 8 17 0 25 2 27
32 21 22 -4 29 -3 24 6 -4 6 -12 9 -17 6 -5 -4 -9 1 -9 9 0 22 17 28 40 16 13
-7 20 -7 20 0 0 5 -4 10 -9 10 -4 0 -6 11 -3 25 5 27 22 35 22 10 0 -8 6 -15
14 -15 8 0 13 8 12 18 0 10 6 16 17 16 10 -1 17 5 17 17 0 12 5 16 15 13 10
-4 15 0 15 15 0 18 3 20 19 11 13 -7 22 -7 26 0 3 5 -2 10 -12 10 -17 1 -17 1
0 14 22 17 22 29 -1 22 -14 -5 -18 -1 -17 14 2 24 15 40 15 17 0 -8 9 -18 19
-22 13 -4 17 -12 13 -27 -3 -14 -1 -19 6 -14 15 9 16 46 2 46 -5 0 -10 7 -10
15 0 12 4 13 18 6 24 -13 55 10 45 34 -5 14 -3 17 10 12 17 -7 33 25 22 43 -4
7 2 9 19 4 22 -5 25 -3 20 12 -5 18 -5 18 10 0 9 -11 16 -15 16 -9 0 6 18 10
43 9 34 -1 42 2 41 17 -1 9 2 17 7 17 5 0 9 -4 9 -10 0 -5 7 -10 16 -10 8 0
12 5 9 10 -3 6 1 10 9 10 25 0 19 20 -6 21 -41 2 -48 4 -48 12 0 4 0 11 0 17
0 14 36 31 54 24 8 -3 12 -12 10 -19 -8 -20 17 -30 31 -12 7 9 15 14 18 10 4
-3 7 1 7 11 0 13 5 16 20 11 14 -4 20 -2 20 9 0 10 -6 13 -15 10 -11 -4 -15 0
-15 16 0 17 -3 20 -12 12 -15 -11 -58 2 -58 18 0 5 -4 10 -10 10 -5 0 -9 -6
-7 -12z m12 -37 c17 -7 17 -8 -8 -13 -19 -4 -27 -1 -27 8 0 15 6 16 35 5z m52
-17 c-3 -3 -12 -4 -19 -1 -8 3 -5 6 6 6 11 1 17 -2 13 -5z m-263 -20 c10 -25
1 -27 -19 -4 -15 17 -16 20 -3 20 9 0 19 -7 22 -16z m101 -64 c-3 -5 -12 -7
-20 -3 -21 7 -19 13 6 13 11 0 18 -4 14 -10z m-375 -300 c0 -5 -5 -10 -11 -10
-5 0 -7 5 -4 10 3 6 8 10 11 10 2 0 4 -4 4 -10z m-525 -10 c3 -5 1 -10 -4 -10
-6 0 -11 5 -11 10 0 6 2 10 4 10 3 0 8 -4 11 -10z m455 -29 c0 -6 -4 -13 -10
-16 -5 -3 -10 1 -10 9 0 9 5 16 10 16 6 0 10 -4 10 -9z m-150 -85 c0 -3 -4 -8
-10 -11 -5 -3 -10 -1 -10 4 0 6 5 11 10 11 6 0 10 -2 10 -4z m-10 -81 c0 -1
-9 -5 -19 -8 -13 -3 -18 -1 -14 9 4 10 33 10 33 -1z m-30 -35 c0 -5 -4 -10
-10 -10 -5 0 -10 5 -10 10 0 6 5 10 10 10 6 0 10 -4 10 -10z m55 -10 c3 -5 1
-10 -4 -10 -6 0 -11 5 -11 10 0 6 2 10 4 10 3 0 8 -4 11 -10z m-174 -57 c30
18 32 1 4 -27 -27 -27 -37 -32 -32 -17 1 5 -2 9 -7 9 -5 0 -12 6 -17 13 -9 16
12 32 25 19 5 -5 16 -4 27 3z m29 -43 c0 -5 -4 -10 -10 -10 -5 0 -10 5 -10 10
0 6 5 10 10 10 6 0 10 -4 10 -10z m10 -36 c0 -8 -4 -12 -10 -9 -5 3 -10 10
-10 16 0 5 5 9 10 9 6 0 10 -7 10 -16z m250 -24 c8 -5 12 -11 10 -14 -3 -2
-14 2 -24 10 -22 15 -10 19 14 4z m-125 -10 c-3 -5 -11 -10 -16 -10 -6 0 -7 5
-4 10 3 6 11 10 16 10 6 0 7 -4 4 -10z m28 -5 c-3 -9 -8 -14 -10 -11 -3 3 -2
9 2 15 9 16 15 13 8 -4z m-178 -25 c0 -16 -3 -30 -7 -30 -5 0 -8 14 -8 30 0
17 3 30 8 30 4 0 7 -13 7 -30z m125 6 c0 -2 -7 -6 -15 -10 -8 -3 -15 -1 -15 4
0 6 7 10 15 10 8 0 15 -2 15 -4z m-93 -32 c1 -18 -2 -23 -9 -16 -6 6 -8 18 -5
26 9 22 12 20 14 -10z m-76 7 c4 7 11 10 15 6 11 -10 -12 -31 -25 -23 -6 4
-11 13 -10 19 0 8 3 7 6 -2 4 -11 7 -11 14 0z m336 3 c-3 -3 -12 -4 -19 -1 -8
3 -5 6 6 6 11 1 17 -2 13 -5z m-412 -14 c3 -5 1 -10 -4 -10 -6 0 -11 5 -11 10
0 6 2 10 4 10 3 0 8 -4 11 -10z m-25 -10 c0 -5 -5 -10 -11 -10 -5 0 -7 5 -4
10 3 6 8 10 11 10 2 0 4 -4 4 -10z m440 -14 c0 -2 -9 -6 -20 -9 -11 -3 -20 -1
-20 4 0 5 9 9 20 9 11 0 20 -2 20 -4z m-230 -36 c0 -5 -4 -10 -10 -10 -5 0
-10 5 -10 10 0 6 5 10 10 10 6 0 10 -4 10 -10z m-88 -22 c-7 -7 -12 -8 -12 -2
0 14 12 26 19 19 2 -3 -1 -11 -7 -17z m-52 -8 c0 -5 -5 -10 -11 -10 -5 0 -7 5
-4 10 3 6 8 10 11 10 2 0 4 -4 4 -10z m317 -16 c-3 -3 -12 -4 -19 -1 -8 3 -5
6 6 6 11 1 17 -2 13 -5z m-287 -18 c0 -3 -4 -8 -10 -11 -5 -3 -10 -1 -10 4 0
6 5 11 10 11 6 0 10 -2 10 -4z m580 -86 c0 -5 -4 -10 -10 -10 -5 0 -10 5 -10
10 0 6 5 10 10 10 6 0 10 -4 10 -10z m-110 -30 c0 -5 -5 -10 -11 -10 -5 0 -7
5 -4 10 3 6 8 10 11 10 2 0 4 -4 4 -10z m-60 -24 c0 -3 -4 -8 -10 -11 -5 -3
-10 -1 -10 4 0 6 5 11 10 11 6 0 10 -2 10 -4z m411 -75 c-9 -6 -21 -5 -33 2
-22 14 -24 32 -3 23 8 -3 15 0 15 6 0 7 7 5 18 -5 14 -15 15 -19 3 -26z
m-1775 -312 c8 -14 -18 -31 -30 -19 -9 9 0 30 14 30 5 0 12 -5 16 -11z m1801
-71 c-3 -8 -6 -5 -6 6 -1 11 2 17 5 13 3 -3 4 -12 1 -19z m-1522 -48 c3 -5 -1
-10 -9 -10 -9 0 -16 5 -16 10 0 6 4 10 9 10 6 0 13 -4 16 -10z m1475 0 c0 -5
-2 -10 -4 -10 -3 0 -8 5 -11 10 -3 6 -1 10 4 10 6 0 11 -4 11 -10z m-136 -54
c-3 -8 -12 -17 -19 -20 -19 -7 -31 14 -14 25 21 13 39 11 33 -5z m-114 -136
c0 -5 -4 -10 -10 -10 -5 0 -10 5 -10 10 0 6 5 10 10 10 6 0 10 -4 10 -10z
m-45 -50 c-4 -6 -1 -18 6 -26 10 -12 9 -13 -5 -8 -18 7 -22 44 -5 44 5 0 7 -5
4 -10z m9 -79 c-3 -3 -9 1 -13 8 -5 7 -14 10 -20 7 -7 -4 -11 1 -11 13 0 21 0
21 25 -1 14 -12 22 -24 19 -27z m56 19 c0 -5 -4 -10 -10 -10 -5 0 -10 5 -10
10 0 6 5 10 10 10 6 0 10 -4 10 -10z m-194 -29 c-4 -6 -14 -7 -23 -4 -15 6
-14 7 3 13 22 9 29 6 20 -9z m58 4 c-4 -8 -13 -15 -21 -15 -13 0 -13 3 -3 15
7 8 16 15 21 15 5 0 6 -7 3 -15z m51 -5 c3 -5 1 -10 -4 -10 -6 0 -11 5 -11 10
0 6 2 10 4 10 3 0 8 -4 11 -10z m-25 -30 c0 -5 -7 -10 -16 -10 -8 0 -12 5 -9
10 3 6 10 10 16 10 5 0 9 -4 9 -10z m-37 -67 c-32 -25 -51 -15 -37 20 4 12 10
12 30 3 22 -10 22 -12 7 -23z m-20 -30 c-7 -2 -19 -2 -25 0 -7 3 -2 5 12 5 14
0 19 -2 13 -5z m135 -4 c11 0 9 -4 -7 -10 -14 -5 -37 -8 -53 -5 -21 3 -31 0
-35 -12 -7 -19 -23 -32 -38 -32 -5 0 -5 4 1 8 7 4 13 16 15 27 4 20 56 37 87
29 8 -2 21 -4 30 -5z m-18 -59 c13 -8 13 -10 1 -10 -13 0 -13 -2 -2 -12 11
-11 15 -10 19 2 7 21 30 -48 24 -75 -3 -18 -9 -21 -30 -17 -37 7 -52 24 -40
45 7 13 5 17 -7 17 -8 0 -15 7 -15 15 0 22 -23 8 -47 -29 -14 -21 -29 -33 -40
-32 -10 2 -17 6 -15 9 1 4 2 12 2 17 0 6 8 10 18 10 10 0 26 14 36 31 13 22
24 29 37 26 10 -3 22 -1 25 4 7 11 15 11 34 -1z m105 -40 c3 -5 1 -10 -4 -10
-6 0 -11 5 -11 10 0 6 2 10 4 10 3 0 8 -4 11 -10z m-23 -42 c-9 -9 -9 -15 1
-26 10 -12 9 -14 -3 -10 -20 6 -22 48 -2 48 12 0 13 -3 4 -12z m-12 -67 c0
-13 -27 -21 -47 -14 -15 6 -15 7 3 14 27 11 44 11 44 0z m-40 -39 c0 -9 -47
-8 -57 1 -3 4 8 7 25 7 18 0 32 -4 32 -8z m-110 -12 c0 -5 -2 -10 -4 -10 -3 0
-8 5 -11 10 -3 6 -1 10 4 10 6 0 11 -4 11 -10z m311 -6 c12 -14 11 -16 -5 -13
-11 2 -21 10 -24 17 -5 17 13 15 29 -4z m-278 -234 c-8 -9 -21 24 -15 39 5 12
8 10 12 -9 4 -14 5 -27 3 -30z m-55 10 c12 -12 22 -25 22 -31 0 -18 -24 -4
-37 22 -7 13 -13 19 -13 13 0 -6 -7 -11 -15 -11 -11 0 -12 4 -4 14 15 18 21
17 47 -7z m-61 -52 c-3 -8 -6 -5 -6 6 -1 11 2 17 5 13 3 -3 4 -12 1 -19z
m-1252 -88 c-3 -5 -11 -10 -16 -10 -6 0 -7 5 -4 10 3 6 11 10 16 10 6 0 7 -4
4 -10z m1188 -75 c-8 -22 -22 -18 -16 5 3 11 9 17 14 15 4 -3 6 -12 2 -20z
m-33 -150 c7 -9 10 -18 6 -22 -3 -3 -6 -1 -6 5 0 7 -7 12 -15 12 -8 0 -15 5
-15 10 0 15 16 12 30 -5z m-970 1 c0 -2 -7 -7 -16 -10 -8 -3 -12 -2 -9 4 6 10
25 14 25 6z m955 -177 c10 -30 2 -32 -12 -3 -6 13 -7 24 -3 24 5 0 12 -9 15
-21z m-95 -100 c0 -11 -4 -18 -10 -14 -5 3 -7 12 -3 20 7 21 13 19 13 -6z m57
5 c-3 -3 -12 -4 -19 -1 -8 3 -5 6 6 6 11 1 17 -2 13 -5z m-27 -49 c-7 -8 -17
-12 -22 -9 -6 4 -5 10 3 15 22 14 33 10 19 -6z m50 -95 c0 -5 -2 -10 -4 -10
-3 0 -8 5 -11 10 -3 6 -1 10 4 10 6 0 11 -4 11 -10z m-74 -160 c0 -11 -4 -20
-8 -20 -10 0 -11 24 -1 33 9 9 9 10 9 -13z m-36 -50 c0 -5 -4 -10 -10 -10 -5
0 -10 5 -10 10 0 6 5 10 10 10 6 0 10 -4 10 -10z m60 -16 c0 -9 -5 -14 -12
-12 -18 6 -21 28 -4 28 9 0 16 -7 16 -16z m-40 -19 c0 -12 -19 -12 -23 0 -4 9
-1 12 9 8 7 -3 14 -7 14 -8z m45 -45 c-6 -10 -45 -1 -45 10 0 4 11 5 25 2 14
-2 23 -8 20 -12z m-155 -70 c0 -5 -7 -10 -16 -10 -8 0 -12 5 -9 10 3 6 10 10
16 10 5 0 9 -4 9 -10z"/>
<path d="M5120 7820 c0 -5 5 -10 10 -10 6 0 10 5 10 10 0 6 -4 10 -10 10 -5 0
-10 -4 -10 -10z"/>
<path d="M5251 7652 c-10 -19 -9 -23 4 -28 21 -8 23 -4 15 26 l-6 25 -13 -23z"/>
<path d="M6150 9901 c0 -6 5 -13 10 -16 6 -4 8 -11 5 -16 -3 -5 1 -6 10 -3 9
4 14 13 11 21 -3 8 -6 17 -6 19 0 2 -7 4 -15 4 -8 0 -15 -4 -15 -9z"/>
<path d="M6197 9867 c-5 -14 31 -43 41 -33 3 3 0 6 -6 6 -22 0 -12 18 16 28
27 10 27 10 -9 11 -22 1 -39 -4 -42 -12z"/>
<path d="M6698 9863 c7 -3 16 -2 19 1 4 3 -2 6 -13 5 -11 0 -14 -3 -6 -6z"/>
<path d="M5710 9835 c-14 -16 -10 -18 14 -9 9 3 16 10 16 15 0 14 -16 11 -30
-6z"/>
<path d="M5831 9834 c0 -11 3 -14 6 -6 3 7 2 16 -1 19 -3 4 -6 -2 -5 -13z"/>
<path d="M6150 9840 c0 -5 5 -10 10 -10 6 0 10 5 10 10 0 6 -4 10 -10 10 -5 0
-10 -4 -10 -10z"/>
<path d="M5775 9830 c-4 -6 -11 -8 -16 -5 -5 4 -9 -2 -9 -11 0 -16 2 -15 23 2
12 10 24 20 26 21 2 2 -1 3 -7 3 -6 0 -14 -5 -17 -10z"/>
<path d="M5850 9809 c0 -5 5 -7 10 -4 6 3 10 8 10 11 0 2 -4 4 -10 4 -5 0 -10
-5 -10 -11z"/>
<path d="M5930 9805 c7 -8 19 -15 26 -15 8 0 11 6 8 15 -4 8 -15 15 -26 15
-17 0 -18 -3 -8 -15z"/>
<path d="M6735 9800 c-3 -5 1 -10 10 -10 9 0 13 5 10 10 -3 6 -8 10 -10 10 -2
0 -7 -4 -10 -10z"/>
<path d="M6195 9790 c-3 -5 -2 -10 4 -10 5 0 13 5 16 10 3 6 2 10 -4 10 -5 0
-13 -4 -16 -10z"/>
<path d="M7659 9753 c-1 -5 -1 -16 0 -25 1 -10 -2 -18 -8 -18 -5 0 -14 8 -20
18 -8 13 -9 10 -8 -18 2 -30 -1 -35 -23 -38 -22 -4 -23 -2 -10 13 13 15 12 17
-5 14 -22 -5 -33 -38 -17 -48 7 -4 8 -12 2 -21 -8 -13 -10 -12 -10 3 0 9 -7
17 -16 17 -11 0 -14 6 -9 20 4 12 2 20 -5 20 -6 0 -9 4 -6 9 4 5 -4 6 -16 3
-19 -5 -20 -7 -5 -10 20 -4 23 -32 5 -50 -9 -9 -9 -12 0 -12 7 0 9 -7 5 -17
-7 -17 -6 -17 11 0 24 23 27 22 20 -10 -4 -22 -3 -25 5 -13 6 9 11 10 11 3 0
-6 3 -19 7 -29 4 -11 3 -15 -4 -11 -6 4 -14 1 -16 -5 -4 -10 -8 -9 -16 2 -9
13 -11 13 -11 -2 0 -10 -5 -18 -12 -18 -6 0 -8 -3 -4 -7 4 -5 12 -8 18 -8 6 0
14 -10 19 -21 6 -19 4 -22 -19 -22 -15 0 -29 4 -32 8 -10 15 -50 22 -50 9 0
-7 -6 -4 -14 6 -12 17 -16 18 -31 5 -15 -13 -19 -12 -31 5 -13 18 -14 17 -14
-11 -1 -23 -3 -26 -10 -13 -6 11 -19 15 -37 12 -16 -3 -23 -1 -17 4 21 15 26
50 9 57 -13 5 -15 1 -10 -17 6 -20 5 -21 -8 -4 -8 9 -19 17 -25 17 -6 0 -12 6
-15 13 -2 7 -8 8 -13 3 -5 -5 -4 -11 4 -13 14 -5 17 -53 2 -53 -5 0 -16 12
-24 28 -11 19 -15 22 -16 10 0 -22 -18 -24 -26 -3 -10 25 -25 17 -18 -10 4
-15 2 -25 -5 -25 -6 0 -11 7 -11 16 0 8 -4 12 -10 9 -5 -3 -10 -2 -10 4 0 5 5
13 10 16 6 3 10 12 9 18 0 9 -2 9 -6 0 -6 -15 -50 -17 -55 -3 -4 12 -48 1 -48
-12 0 -5 5 -6 10 -3 13 8 13 -1 -1 -26 -10 -19 -10 -19 -28 3 -13 16 -28 22
-55 21 -20 -1 -33 3 -30 8 3 5 -2 9 -10 9 -9 0 -16 -6 -17 -12 0 -7 -4 -3 -10
10 -9 25 -46 27 -41 3 2 -8 -4 -10 -18 -6 -11 3 -20 2 -20 -3 0 -15 -71 -25
-83 -13 -16 16 -37 13 -37 -4 0 -10 -10 -15 -30 -15 -28 0 -44 -19 -17 -21 6
0 3 -4 -8 -9 -17 -7 -17 -9 -2 -9 29 -1 21 -47 -12 -70 -25 -18 -30 -19 -35
-5 -9 23 -8 24 18 24 15 0 26 7 29 20 3 13 0 20 -10 20 -8 0 -11 -4 -8 -10 3
-5 0 -10 -9 -10 -8 0 -17 6 -19 13 -4 9 -8 9 -15 -2 -9 -12 -15 -12 -44 1 -18
9 -40 18 -48 21 -12 4 -11 6 3 6 9 1 17 8 17 16 0 16 -15 20 -24 7 -3 -5 -22
-8 -43 -7 -21 1 -41 -3 -45 -9 -5 -7 -8 -7 -8 2 0 6 -9 12 -20 12 -11 0 -25 9
-32 20 -16 25 -43 26 -53 3 -6 -16 -8 -15 -16 5 -4 12 -16 22 -25 22 -16 0
-16 -1 -1 -18 22 -24 21 -32 -3 -32 -11 0 -20 4 -20 9 0 17 -50 6 -56 -11 -3
-10 -11 -18 -17 -19 -7 0 -3 -4 8 -9 18 -8 17 -9 -7 -9 -34 -1 -37 -18 -5 -24
15 -3 12 -5 -12 -6 -23 -1 -32 -5 -28 -14 3 -8 -3 -14 -15 -14 -28 -2 -34 -11
-19 -26 9 -9 14 -9 21 3 5 8 10 10 10 4 0 -6 -7 -17 -15 -24 -10 -9 -15 -9
-15 -1 0 6 -11 11 -25 11 -33 0 -33 -27 -1 -41 32 -15 23 -35 -17 -43 -22 -5
-28 -9 -19 -15 7 -4 12 -12 10 -17 -2 -5 2 -11 7 -13 6 -2 16 -11 23 -20 10
-12 15 -13 18 -3 8 18 24 15 24 -5 0 -15 1 -15 18 0 28 25 43 21 36 -8 -4 -15
-2 -25 5 -25 6 0 11 4 11 9 0 17 51 18 73 1 12 -9 28 -15 35 -13 6 3 12 -2 12
-11 0 -9 5 -16 11 -16 5 0 7 -6 3 -12 -6 -10 -4 -10 8 0 13 10 17 10 22 -4 9
-23 9 -23 -24 -21 -19 1 -30 8 -30 17 0 13 -1 13 -10 0 -12 -18 -13 -31 -2
-28 11 2 46 -14 54 -26 5 -7 8 -4 8 6 0 10 6 15 13 13 6 -3 26 -1 42 3 l30 9
-33 7 c-24 6 -32 12 -28 23 3 8 6 22 7 31 1 10 4 7 9 -8 5 -17 8 -19 9 -7 1 9
6 17 12 17 6 0 9 -7 5 -15 -3 -8 -1 -15 4 -15 6 0 10 10 11 23 0 21 1 21 8 2
5 -11 7 -23 4 -27 -2 -4 3 -5 12 -1 13 4 16 1 13 -18 -2 -20 1 -24 20 -22 22
3 28 -12 23 -61 -1 -14 4 -17 18 -13 13 3 18 1 15 -8 -7 -17 14 -29 51 -31 17
-1 24 1 18 3 -18 6 -16 23 2 23 8 0 15 -4 15 -10 0 -6 9 -6 26 1 15 5 29 7 32
4 3 -3 1 -5 -5 -5 -6 0 -10 -11 -10 -24 0 -19 5 -23 28 -24 34 -1 39 15 7 21
-21 4 -20 4 3 6 33 1 60 -25 35 -35 -20 -8 -21 -24 0 -24 8 0 12 -4 9 -10 -3
-5 -1 -10 4 -10 6 0 11 12 11 26 0 22 3 25 23 20 12 -3 31 -6 42 -6 18 -1 18
-2 3 -10 -10 -6 -14 -18 -11 -30 6 -22 23 -27 23 -7 0 9 3 8 9 -2 6 -9 10 -10
16 -2 10 17 35 -6 35 -33 -1 -19 -2 -19 -11 -3 -6 9 -15 15 -20 12 -6 -4 -6
-13 0 -23 5 -10 5 -22 -2 -33 -19 -30 1 -33 26 -4 20 24 25 26 30 12 4 -10 2
-17 -3 -17 -6 0 -10 -7 -10 -15 0 -8 7 -15 15 -15 9 0 15 -6 14 -12 -4 -36 1
-46 24 -41 18 5 20 3 10 -8 -17 -18 -16 -29 2 -29 8 0 15 -4 15 -10 0 -5 5
-10 11 -10 8 0 8 4 0 14 -8 10 -9 16 -1 21 5 3 10 16 11 28 1 18 3 16 10 -8 5
-16 7 -36 4 -42 -2 -7 0 -13 5 -13 6 0 10 6 10 14 0 15 35 16 58 2 7 -4 17 -4
22 -1 16 10 41 -21 33 -41 -4 -12 -3 -15 6 -10 8 5 10 19 6 37 -8 36 -2 37 20
3 12 -19 14 -29 5 -39 -8 -9 -8 -15 0 -20 5 -3 10 1 10 10 0 20 26 30 43 17 6
-5 21 -12 32 -14 20 -5 20 -5 1 -13 -13 -6 -21 -4 -24 3 -2 7 -8 12 -13 12
-12 0 -11 -27 1 -35 14 -9 110 14 130 30 26 21 40 27 40 16 0 -6 -7 -11 -15
-11 -8 0 -15 -4 -15 -9 0 -5 -10 -13 -22 -17 -19 -6 -17 -8 17 -20 22 -7 41
-11 44 -9 2 3 0 5 -5 5 -5 0 -10 10 -11 23 0 12 1 16 4 10 3 -7 14 -13 24 -13
11 0 17 -4 14 -10 -8 -12 15 -13 34 -1 9 6 10 11 2 15 -7 4 -5 13 6 26 16 18
39 18 28 0 -9 -15 14 -50 33 -49 16 1 15 2 -1 6 -22 6 -12 23 14 23 10 0 19 5
19 11 0 6 -6 9 -13 6 -8 -3 -20 -1 -28 5 -11 8 -10 9 4 4 11 -3 17 0 17 9 0 8
-8 15 -17 16 -16 0 -16 1 1 8 14 5 16 10 8 15 -16 10 -15 33 2 39 10 4 12 0 9
-14 -7 -25 16 -52 39 -46 13 4 20 -2 24 -19 5 -20 9 -22 20 -13 8 7 14 7 14 1
0 -5 9 -12 20 -15 20 -5 28 -27 10 -27 -5 0 -10 5 -10 11 0 5 -5 7 -10 4 -17
-10 -1 -25 26 -25 14 0 22 4 19 10 -10 16 22 12 39 -5 8 -8 23 -16 33 -18 10
-1 25 -6 33 -11 12 -7 13 -6 3 5 -7 7 -13 19 -13 26 0 8 6 13 13 12 19 -2 57
12 57 22 0 12 -27 11 -35 -1 -3 -5 -15 -10 -26 -10 -10 0 -19 -7 -19 -15 0
-22 -15 -18 -17 4 -1 13 8 23 29 30 48 17 68 13 78 -14 5 -14 23 -34 40 -43
22 -12 28 -22 24 -36 -4 -12 -2 -16 5 -12 15 9 102 -4 96 -14 -3 -5 -16 -7
-30 -5 -14 1 -25 -2 -25 -6 0 -5 6 -9 13 -9 20 0 51 -37 36 -42 -7 -2 -9 -10
-5 -16 7 -12 17 -11 66 6 8 3 3 -6 -11 -19 -33 -30 -46 -72 -21 -67 10 2 16
11 14 21 -3 20 32 24 44 5 5 -8 2 -9 -9 -5 -21 8 -23 -16 -4 -32 10 -8 17 -7
26 2 10 10 12 6 9 -18 -2 -24 1 -30 22 -36 l25 -7 -25 -2 c-14 -1 -19 -4 -12
-7 17 -7 15 -62 -3 -69 -8 -4 -15 -12 -15 -20 0 -8 7 -14 15 -14 16 0 20 -12
8 -23 -3 -4 -12 -2 -19 4 -17 14 -30 -9 -14 -24 9 -9 17 -5 36 16 17 20 24 24
24 12 0 -25 -19 -55 -35 -55 -8 0 -15 -4 -15 -10 0 -14 27 -12 33 3 4 9 8 8
16 -3 10 -13 14 -12 30 9 15 20 19 21 24 8 3 -9 2 -19 -3 -22 -5 -3 -7 -12 -4
-20 4 -9 -1 -17 -12 -21 -46 -14 -58 -23 -25 -17 32 6 33 5 22 -16 -12 -21 1
-31 14 -11 12 19 34 10 49 -20 13 -28 13 -30 -4 -30 -20 0 -46 -27 -36 -38 4
-4 14 2 22 12 13 18 14 18 20 2 5 -13 14 -16 34 -13 25 5 27 3 37 -45 8 -40 7
-51 -3 -55 -8 -3 -11 -9 -8 -14 3 -5 -1 -9 -8 -10 -7 0 -4 -4 7 -8 23 -10 43
-2 25 9 -8 5 -9 10 -1 14 6 4 20 -12 32 -36 12 -24 26 -46 31 -49 6 -4 5 -9
-2 -14 -8 -5 -9 -10 -2 -14 6 -4 12 -23 14 -44 1 -20 6 -37 11 -37 4 0 7 8 5
18 -1 9 1 18 5 20 16 5 27 2 27 -9 0 -5 -5 -7 -11 -3 -8 4 -8 1 -1 -12 5 -11
7 -25 4 -33 -3 -9 0 -12 9 -9 8 3 23 2 34 -3 19 -7 19 -8 -2 -8 -35 -1 -27
-21 7 -21 24 0 30 -4 31 -22 1 -17 2 -19 6 -5 6 21 19 22 27 1 8 -22 9 -21
-16 -29 -21 -6 -20 -8 12 -18 19 -6 39 -17 43 -24 12 -19 24 -16 30 7 4 17 0
20 -36 22 l-42 1 45 6 c32 4 46 2 48 -6 2 -7 13 -13 26 -13 17 0 21 -5 20 -27
-2 -48 10 -60 17 -18 8 46 5 55 -20 55 -12 0 -20 9 -23 25 -7 33 9 43 21 13 5
-13 18 -24 29 -25 14 -1 19 3 16 12 -3 7 -1 16 5 20 19 11 13 37 -7 31 -13 -4
-18 0 -19 14 -1 12 3 18 8 14 6 -3 9 2 7 11 -2 10 3 20 11 23 9 3 12 0 9 -10
-10 -24 21 -76 49 -83 16 -4 29 -1 33 5 5 8 9 6 14 -5 3 -9 10 -13 16 -10 6 4
8 10 5 15 -3 4 -2 15 1 24 5 12 9 13 26 3 16 -9 22 -9 25 0 3 10 8 9 20 -2 8
-8 19 -12 24 -9 6 3 4 11 -4 17 -20 16 -5 57 20 57 16 0 16 2 3 11 -12 9 -10
10 8 6 13 -3 30 -3 38 0 20 7 18 31 -2 29 -9 0 -19 5 -21 12 -3 7 1 10 11 6 9
-3 16 -2 16 4 0 6 -5 12 -10 14 -6 2 -1 9 11 17 20 12 21 11 16 -8 -3 -12 -1
-21 5 -21 5 0 8 10 6 23 -2 12 -8 21 -15 20 -6 -1 -18 6 -28 17 -16 18 -16 18
4 13 19 -5 19 -1 -11 56 -17 33 -35 58 -39 55 -5 -3 -4 7 2 23 9 23 8 30 -8
38 -25 14 -83 71 -83 82 0 5 9 9 20 10 11 1 20 -3 20 -8 0 -6 5 -7 10 -4 6 4
4 12 -5 21 -8 9 -15 24 -15 34 0 10 -5 22 -11 26 -6 3 -9 15 -6 25 3 11 1 19
-4 19 -4 0 -6 7 -2 15 3 10 1 15 -7 13 -8 -2 -16 10 -20 27 -4 17 -16 48 -28
70 -33 62 -80 167 -87 197 -4 14 -15 34 -26 44 -10 9 -19 21 -19 26 0 12 -52
122 -60 128 -4 3 -19 30 -33 60 -27 57 -78 151 -87 160 -8 8 -29 43 -37 60 -3
8 -26 46 -50 83 -23 37 -43 72 -43 77 0 5 -13 19 -29 31 -16 12 -27 28 -24 35
3 7 -6 24 -20 38 -14 14 -22 27 -19 30 3 3 -2 6 -11 6 -8 0 -19 9 -22 20 -4
11 -11 18 -16 15 -5 -4 -9 1 -9 9 0 9 -6 16 -12 16 -7 0 -21 14 -30 31 -10 17
-21 28 -26 26 -11 -8 -36 15 -49 46 -7 15 -19 27 -28 27 -8 0 -15 4 -15 9 0 5
-11 12 -25 15 -14 4 -23 11 -20 16 3 6 -1 10 -9 10 -9 0 -16 7 -16 15 0 9 -12
20 -26 25 -14 6 -23 14 -20 19 6 9 -22 26 -37 22 -5 -1 -6 3 -2 9 8 12 -65 92
-79 87 -5 -2 -34 9 -64 25 -30 15 -60 25 -66 22 -6 -3 -3 1 7 9 17 14 16 15
-8 13 -14 0 -23 -6 -21 -12 2 -5 -2 -21 -10 -35 -7 -13 -13 -20 -14 -16 0 5 5
17 10 28 7 12 7 19 1 19 -6 0 -8 7 -5 15 4 8 1 15 -6 15 -6 0 -8 5 -5 10 3 6
4 10 1 10 -3 0 -7 -3 -7 -7z m-49 -143 c0 -24 -15 -27 -24 -4 -3 8 -2 12 4 9
6 -3 10 -1 10 4 0 6 2 11 5 11 3 0 5 -9 5 -20z m17 -56 c-3 -3 -12 -4 -19 -1
-8 3 -5 6 6 6 11 1 17 -2 13 -5z m-550 -12 c9 -6 7 -11 -7 -20 -17 -11 -20
-10 -20 8 0 21 7 25 27 12z m-777 -36 c0 -3 -4 -8 -10 -11 -5 -3 -10 -1 -10 4
0 6 5 11 10 11 6 0 10 -2 10 -4z m1190 -56 c0 -5 -7 -10 -15 -10 -8 0 -15 5
-15 10 0 6 7 10 15 10 8 0 15 -4 15 -10z m80 -30 c0 -5 -4 -10 -10 -10 -5 0
-10 5 -10 10 0 6 5 10 10 10 6 0 10 -4 10 -10z m135 -20 c3 -5 1 -10 -4 -10
-6 0 -11 5 -11 10 0 6 2 10 4 10 3 0 8 -4 11 -10z m405 -530 c12 -8 11 -10 -7
-10 -13 0 -23 5 -23 10 0 13 11 13 30 0z m-660 -96 c0 -8 -19 -13 -24 -6 -3 5
1 9 9 9 8 0 15 -2 15 -3z m35 -13 c3 -5 1 -12 -5 -16 -5 -3 -10 1 -10 9 0 18
6 21 15 7z m-405 -41 c0 -5 -4 -10 -10 -10 -5 0 -10 5 -10 10 0 6 5 10 10 10
6 0 10 -4 10 -10z m400 -10 c0 -5 -4 -10 -10 -10 -5 0 -10 5 -10 10 0 6 5 10
10 10 6 0 10 -4 10 -10z m249 -35 c0 -5 -4 -3 -9 5 -5 8 -9 22 -9 30 0 16 17
-16 18 -35z m-324 25 c3 -5 1 -10 -4 -10 -6 0 -11 5 -11 10 0 6 2 10 4 10 3 0
8 -4 11 -10z m155 0 c0 -5 -4 -10 -10 -10 -5 0 -10 5 -10 10 0 6 5 10 10 10 6
0 10 -4 10 -10z m73 3 c-7 -2 -19 -2 -25 0 -7 3 -2 5 12 5 14 0 19 -2 13 -5z
m-426 -33 c4 -11 2 -12 -5 -2 -5 7 -16 10 -27 6 -13 -5 -16 -4 -11 5 10 16 38
10 43 -9z m451 -13 c2 -9 -1 -17 -7 -17 -6 0 -11 7 -11 16 0 11 -6 14 -22 9
-18 -5 -20 -4 -8 4 21 15 44 9 48 -12z m92 -17 c-26 -20 -80 -27 -80 -10 0 5
10 12 23 14 54 12 63 14 72 15 6 0 -1 -8 -15 -19z m-332 -1 c-2 -6 -8 -10 -13
-10 -5 0 -11 4 -13 10 -2 6 4 11 13 11 9 0 15 -5 13 -11z m-134 -14 c-4 -8
-11 -12 -16 -9 -6 4 -5 10 3 15 19 12 19 11 13 -6z m992 -632 c-10 -10 -19 5
-10 18 6 11 8 11 12 0 2 -7 1 -15 -2 -18z m34 -19 c0 -8 -4 -12 -10 -9 -5 3
-10 10 -10 16 0 5 5 9 10 9 6 0 10 -7 10 -16z m100 -104 c0 -5 -2 -10 -4 -10
-3 0 -8 5 -11 10 -3 6 -1 10 4 10 6 0 11 -4 11 -10z m65 -159 c3 -5 1 -12 -5
-16 -5 -3 -10 1 -10 9 0 18 6 21 15 7z m-35 -21 c0 -5 -4 -10 -10 -10 -5 0
-10 5 -10 10 0 6 5 10 10 10 6 0 10 -4 10 -10z m60 -74 c0 -2 -7 -7 -16 -10
-8 -3 -12 -2 -9 4 6 10 25 14 25 6z m383 -23 c-5 -12 -7 -12 -14 -1 -13 20
-11 28 5 22 8 -3 12 -12 9 -21z m-47 -10 c-8 -8 -36 5 -36 17 0 7 6 7 21 0 11
-7 18 -14 15 -17z m-206 -73 c0 -5 -4 -10 -9 -10 -6 0 -13 5 -16 10 -3 6 1 10
9 10 9 0 16 -4 16 -10z"/>
<path d="M7010 9735 c0 -9 6 -12 15 -9 8 4 15 7 15 9 0 2 -7 5 -15 9 -9 3 -15
0 -15 -9z"/>
<path d="M6767 9710 c4 -16 7 -17 19 -5 19 18 18 25 -5 25 -14 0 -18 -5 -14
-20z"/>
<path d="M6798 9684 c-5 -4 -8 -18 -8 -31 0 -12 -6 -23 -12 -23 -15 0 -41 -51
-32 -59 4 -3 9 0 11 7 8 20 26 13 20 -8 -7 -26 -1 -25 27 5 13 14 29 25 37 25
10 0 10 3 2 11 -6 6 -9 18 -6 25 3 8 -1 14 -10 14 -9 0 -17 9 -19 21 -2 11 -6
17 -10 13z"/>
<path d="M7375 9630 c-3 -5 -2 -10 4 -10 5 0 13 5 16 10 3 6 2 10 -4 10 -5 0
-13 -4 -16 -10z"/>
<path d="M7308 9623 c7 -3 16 -2 19 1 4 3 -2 6 -13 5 -11 0 -14 -3 -6 -6z"/>
<path d="M7325 9590 c3 -5 13 -10 21 -10 8 0 12 5 9 10 -3 6 -13 10 -21 10 -8
0 -12 -4 -9 -10z"/>
<path d="M6240 9580 c0 -5 5 -10 10 -10 6 0 10 5 10 10 0 6 -4 10 -10 10 -5 0
-10 -4 -10 -10z"/>
<path d="M6703 9573 c9 -2 17 -11 17 -19 0 -8 5 -14 10 -14 7 0 7 6 0 20 -6
11 -18 19 -28 19 -16 -1 -16 -2 1 -6z"/>
<path d="M7370 9566 c0 -9 5 -16 10 -16 6 0 10 4 10 9 0 6 -4 13 -10 16 -5 3
-10 -1 -10 -9z"/>
<path d="M6588 9533 c7 -3 16 -2 19 1 4 3 -2 6 -13 5 -11 0 -14 -3 -6 -6z"/>
<path d="M7370 9525 c7 -8 16 -12 21 -9 13 8 1 24 -18 24 -13 0 -13 -3 -3 -15z"/>
<path d="M7470 9530 c0 -5 5 -10 11 -10 5 0 7 5 4 10 -3 6 -8 10 -11 10 -2 0
-4 -4 -4 -10z"/>
<path d="M4555 9491 c-3 -5 -1 -12 5 -16 5 -3 10 1 10 9 0 18 -6 21 -15 7z"/>
<path d="M5260 9390 c-9 -6 -10 -10 -3 -10 6 0 15 5 18 10 8 12 4 12 -15 0z"/>
<path d="M5057 9321 c-3 -13 -1 -18 9 -14 7 2 10 11 7 19 -7 19 -10 18 -16 -5z"/>
<path d="M5960 9310 c-12 -8 -10 -10 8 -10 13 0 20 4 17 10 -7 12 -6 12 -25 0z"/>
<path d="M5276 9301 c-4 -6 -2 -11 4 -11 7 0 10 -7 6 -15 -3 -8 -1 -26 4 -40
6 -15 6 -26 0 -30 -6 -4 -10 3 -10 14 0 12 -4 21 -10 21 -5 0 -10 -5 -10 -10
0 -7 -13 -8 -36 -4 -29 5 -36 4 -32 -7 3 -9 18 -13 41 -12 31 2 36 -1 35 -20
-1 -12 -6 -28 -11 -34 -7 -9 -5 -13 7 -13 9 0 16 8 16 19 0 10 7 22 16 25 9 4
14 9 11 13 -4 3 -2 12 3 19 8 8 6 17 -6 29 -15 14 -15 18 -3 26 12 7 11 11 -2
25 -11 11 -19 12 -23 5z"/>
<path d="M5330 9210 c0 -5 4 -10 9 -10 6 0 13 5 16 10 3 6 -1 10 -9 10 -9 0
-16 -4 -16 -10z"/>
<path d="M5024 9192 c-6 -4 -14 -15 -17 -26 -5 -12 -14 -17 -27 -13 -11 3 -23
0 -27 -6 -3 -7 -3 -9 2 -5 4 4 15 3 22 -4 11 -9 16 -9 23 2 7 11 11 11 24 1
11 -9 16 -10 16 -2 0 6 -4 11 -10 11 -5 0 -7 7 -4 15 4 8 10 12 15 9 5 -3 9
-1 9 5 0 14 -14 21 -26 13z"/>
<path d="M5197 9184 c-9 -10 4 -34 19 -34 8 0 14 9 14 20 0 19 -19 27 -33 14z"/>
<path d="M5330 9180 c0 -5 5 -10 10 -10 6 0 10 5 10 10 0 6 -4 10 -10 10 -5 0
-10 -4 -10 -10z"/>
<path d="M5090 9170 c0 -5 5 -10 10 -10 6 0 10 5 10 10 0 6 -4 10 -10 10 -5 0
-10 -4 -10 -10z"/>
<path d="M5135 9170 c-17 -27 -13 -35 17 -36 17 -1 34 -7 39 -15 6 -10 9 -11
9 -1 0 7 -11 17 -24 22 -13 5 -26 17 -28 27 -3 15 -5 16 -13 3z"/>
<path d="M6200 9170 c0 -5 5 -10 10 -10 6 0 10 5 10 10 0 6 -4 10 -10 10 -5 0
-10 -4 -10 -10z"/>
<path d="M5290 9160 c0 -5 5 -10 10 -10 6 0 10 5 10 10 0 6 -4 10 -10 10 -5 0
-10 -4 -10 -10z"/>
<path d="M4905 9150 c4 -6 11 -8 16 -5 14 9 11 15 -7 15 -8 0 -12 -5 -9 -10z"/>
<path d="M4930 9119 c0 -5 5 -7 10 -4 6 3 10 8 10 11 0 2 -4 4 -10 4 -5 0 -10
-5 -10 -11z"/>
<path d="M5257 9123 c-3 -5 -1 -17 4 -28 7 -17 8 -17 8 8 1 27 -4 34 -12 20z"/>
<path d="M5118 9113 c-20 -5 -25 -25 -5 -21 6 1 28 -6 47 -16 35 -17 35 -17
11 2 -13 11 -21 24 -17 31 7 11 -4 13 -36 4z"/>
<path d="M5190 9090 c0 -5 5 -10 10 -10 6 0 10 5 10 10 0 6 -4 10 -10 10 -5 0
-10 -4 -10 -10z"/>
<path d="M5220 9090 c0 -5 5 -10 10 -10 6 0 10 5 10 10 0 6 -4 10 -10 10 -5 0
-10 -4 -10 -10z"/>
<path d="M5130 9066 c0 -2 7 -9 15 -16 13 -11 14 -10 9 4 -5 14 -24 23 -24 12z"/>
<path d="M6588 8983 c6 -2 18 -2 25 0 6 3 1 5 -13 5 -14 0 -19 -2 -12 -5z"/>
<path d="M6648 8903 c7 -3 16 -2 19 1 4 3 -2 6 -13 5 -11 0 -14 -3 -6 -6z"/>
<path d="M5240 8862 c0 -13 38 -23 46 -11 3 5 1 9 -5 9 -5 0 -16 3 -25 6 -9 3
-16 2 -16 -4z"/>
<path d="M5440 8756 c0 -2 8 -10 18 -17 15 -13 16 -12 3 4 -13 16 -21 21 -21
13z"/>
<path d="M5947 8669 c7 -7 15 -10 18 -7 3 3 -2 9 -12 12 -14 6 -15 5 -6 -5z"/>
<path d="M5917 8663 c-4 -3 -7 -13 -7 -22 1 -13 3 -13 11 2 11 19 8 33 -4 20z"/>
<path d="M6000 8640 c0 -5 5 -10 11 -10 5 0 7 5 4 10 -3 6 -8 10 -11 10 -2 0
-4 -4 -4 -10z"/>
<path d="M5970 8600 c0 -5 5 -10 10 -10 6 0 10 5 10 10 0 6 -4 10 -10 10 -5 0
-10 -4 -10 -10z"/>
<path d="M6011 8601 c-10 -7 -10 -10 -1 -16 6 -4 16 -3 22 3 13 13 -4 23 -21
13z"/>
<path d="M5920 8590 c0 -5 7 -10 15 -10 8 0 15 5 15 10 0 6 -7 10 -15 10 -8 0
-15 -4 -15 -10z"/>
<path d="M6065 8590 c3 -5 8 -10 11 -10 2 0 4 5 4 10 0 6 -5 10 -11 10 -5 0
-7 -4 -4 -10z"/>
<path d="M7568 8583 c7 -3 16 -2 19 1 4 3 -2 6 -13 5 -11 0 -14 -3 -6 -6z"/>
<path d="M7836 8577 c3 -10 9 -15 12 -12 3 3 0 11 -7 18 -10 9 -11 8 -5 -6z"/>
<path d="M7230 8569 c0 -5 5 -7 10 -4 6 3 10 8 10 11 0 2 -4 4 -10 4 -5 0 -10
-5 -10 -11z"/>
<path d="M6025 8550 c-11 -13 -14 -20 -6 -20 13 0 41 24 41 34 0 12 -18 5 -35
-14z"/>
<path d="M7270 8561 c0 -10 19 -25 25 -20 1 2 -3 10 -11 17 -8 7 -14 8 -14 3z"/>
<path d="M7441 8554 c0 -11 3 -14 6 -6 3 7 2 16 -1 19 -3 4 -6 -2 -5 -13z"/>
<path d="M7690 8549 c0 -11 4 -18 10 -14 5 3 7 12 3 20 -7 21 -13 19 -13 -6z"/>
<path d="M3740 8539 c0 -5 5 -7 10 -4 6 3 10 8 10 11 0 2 -4 4 -10 4 -5 0 -10
-5 -10 -11z"/>
<path d="M7780 8531 c0 -5 7 -14 15 -21 16 -14 18 -10 9 14 -6 17 -24 22 -24
7z"/>
<path d="M7720 8520 c0 -5 5 -10 10 -10 6 0 10 5 10 10 0 6 -4 10 -10 10 -5 0
-10 -4 -10 -10z"/>
<path d="M7920 8502 c0 -12 19 -26 26 -19 2 2 -2 10 -11 17 -9 8 -15 8 -15 2z"/>
<path d="M7967 8463 c-13 -13 -7 -21 13 -16 11 3 20 9 20 14 0 10 -24 12 -33
2z"/>
<path d="M5790 8411 c0 -5 5 -13 10 -16 6 -3 10 -2 10 4 0 5 -4 13 -10 16 -5
3 -10 2 -10 -4z"/>
<path d="M7994 8394 c3 -9 6 -21 7 -27 0 -7 4 -3 9 8 13 29 12 35 -6 35 -11 0
-14 -5 -10 -16z"/>
<path d="M8055 8330 c3 -5 8 -10 11 -10 2 0 4 5 4 10 0 6 -5 10 -11 10 -5 0
-7 -4 -4 -10z"/>
<path d="M8084 8268 c-7 -22 -7 -22 -14 -4 -3 11 -9 15 -12 10 -4 -5 0 -18 8
-29 8 -10 14 -13 14 -7 0 7 5 12 10 12 6 0 10 -7 10 -15 0 -16 16 -20 24 -6 3
5 -1 14 -9 21 -8 7 -13 16 -10 20 3 5 1 11 -4 14 -5 4 -13 -4 -17 -16z"/>
<path d="M8075 8190 c4 -6 11 -8 16 -5 14 9 11 15 -7 15 -8 0 -12 -5 -9 -10z"/>
<path d="M8168 8063 c7 -3 16 -2 19 1 4 3 -2 6 -13 5 -11 0 -14 -3 -6 -6z"/>
<path d="M7356 7993 c-6 -14 -5 -15 5 -6 7 7 10 15 7 18 -3 3 -9 -2 -12 -12z"/>
<path d="M7403 7980 c-3 -12 -14 -20 -27 -19 -31 0 -106 -18 -78 -20 12 0 22
-4 22 -8 -1 -16 -28 -43 -43 -43 -8 0 -18 -6 -21 -12 -5 -10 -7 -10 -12 0 -3
6 -13 12 -22 12 -15 0 -15 -2 -2 -10 13 -9 13 -12 -3 -24 -12 -9 -17 -22 -13
-33 3 -10 1 -25 -4 -33 -9 -13 -10 -13 -11 0 -1 8 -1 21 0 28 1 6 -3 12 -9 12
-5 0 -10 -7 -10 -15 0 -8 -7 -15 -15 -15 -8 0 -15 -7 -15 -15 0 -8 -6 -12 -14
-9 -8 3 -17 1 -21 -5 -3 -6 -15 -11 -25 -11 -10 0 -21 -6 -24 -12 -4 -9 -8
-10 -11 -2 -3 6 -12 20 -20 30 -14 18 -14 18 -15 -8 0 -23 -4 -28 -26 -28 -21
0 -25 -4 -21 -20 5 -21 -1 -24 -28 -14 -13 5 -14 9 -3 15 10 7 7 11 -9 15 -13
4 -23 10 -23 15 0 5 -4 9 -9 9 -6 0 -13 -18 -18 -41 -8 -39 -31 -54 -26 -16 2
9 -1 17 -6 17 -5 0 -16 3 -24 6 -9 3 -16 -3 -20 -15 -4 -18 -2 -19 14 -10 11
5 19 6 19 0 0 -5 -7 -11 -15 -15 -8 -3 -15 -15 -15 -26 0 -14 -7 -20 -22 -21
-21 -1 -21 -2 -3 -6 49 -10 50 -15 11 -34 -49 -24 -66 -24 -67 -1 0 13 -3 12
-12 -6 -8 -19 -8 -25 4 -33 10 -6 10 -9 2 -9 -7 0 -13 -7 -13 -16 0 -22 23
-12 35 14 5 12 13 22 17 22 14 0 8 -33 -8 -52 -19 -20 -8 -42 26 -53 10 -3 20
-12 22 -20 2 -11 9 -11 39 -1 30 11 41 10 63 -1 14 -7 26 -19 26 -24 0 -7 9
-9 21 -6 15 4 19 2 15 -8 -3 -8 0 -17 6 -21 7 -4 8 -3 4 5 -6 8 0 10 21 6 15
-3 22 -2 16 1 -18 8 -16 24 2 24 21 0 31 -30 14 -40 -7 -5 -10 -12 -7 -15 12
-13 28 6 28 33 0 15 4 34 10 42 7 12 12 11 28 -7 16 -19 23 -21 58 -13 30 7
42 6 53 -5 12 -12 16 -12 28 3 13 15 14 15 9 -8 -5 -24 -4 -23 23 7 23 27 31
30 40 20 6 -8 10 -16 8 -18 -1 -2 4 4 12 13 16 22 35 24 27 3 -3 -9 0 -15 10
-15 11 0 15 6 11 20 -7 26 7 25 33 -2 11 -12 23 -18 27 -15 3 4 -2 14 -13 21
-14 11 -16 18 -8 26 8 8 15 8 25 -2 18 -18 55 -17 51 1 -2 8 3 11 12 8 8 -3
20 1 27 9 6 8 20 12 30 9 9 -3 20 -1 24 5 3 5 -1 10 -9 10 -9 0 -16 5 -16 11
0 7 7 8 18 4 9 -4 22 -8 28 -8 6 0 9 -11 6 -24 -3 -14 0 -23 9 -23 7 0 9 3 6
7 -4 3 3 13 14 21 15 10 23 11 28 3 5 -8 18 -5 46 9 21 11 42 17 46 14 5 -3 9
2 9 10 0 16 32 38 53 35 24 -3 37 1 37 12 0 6 -7 8 -16 5 -10 -4 -14 -1 -11 6
2 7 11 12 20 10 11 -2 14 3 10 18 -4 16 -9 18 -25 9 -13 -7 -18 -7 -14 -1 3 6
1 14 -5 18 -6 3 -15 0 -20 -7 -6 -10 -9 -8 -9 10 0 17 -4 21 -15 17 -8 -3 -22
-9 -30 -12 -8 -3 -15 -1 -15 5 0 6 -7 11 -17 11 -15 0 -15 2 1 19 17 19 44 18
57 -2 3 -5 9 -2 12 7 4 9 3 15 -1 14 -4 -1 -15 2 -24 6 -30 14 -62 2 -69 -24
-5 -16 -7 -19 -8 -7 -1 10 -12 22 -25 27 -29 11 -40 26 -26 35 5 3 10 -1 10
-9 0 -9 9 -16 20 -16 22 0 27 15 8 24 -9 3 -6 10 9 24 20 18 20 19 3 32 -11 8
-15 20 -12 33 4 17 1 19 -21 15 -17 -3 -27 -1 -27 7 0 8 13 11 35 9 26 -2 35
2 35 13 0 10 -6 14 -19 10 -13 -3 -23 3 -32 22 -12 25 -13 25 -26 -33 -15 -65
-10 -78 31 -78 14 0 26 -5 26 -10 0 -6 -11 -8 -25 -6 -17 4 -25 1 -25 -9 0 -8
-6 -13 -12 -11 -22 8 -29 107 -10 136 15 23 15 24 -9 22 -40 -4 -49 -1 -49 15
0 9 6 12 15 9 8 -4 15 -1 15 5 0 17 -41 13 -57 -6 -10 -13 -16 -15 -19 -5 -3
6 -12 12 -20 12 -8 0 -14 4 -14 8 0 5 10 8 21 8 12 -1 24 4 26 10 2 7 -5 10
-20 7 -14 -3 -28 0 -31 6 -11 17 -27 13 -33 -9z m-23 -49 c0 -13 -28 -22 -35
-11 -3 4 1 11 7 13 20 8 28 8 28 -2z m-40 -35 c0 -3 -4 -8 -10 -11 -5 -3 -10
-1 -10 4 0 6 5 11 10 11 6 0 10 -2 10 -4z m205 -26 c-3 -5 -10 -10 -16 -10 -5
0 -9 5 -9 10 0 6 7 10 16 10 8 0 12 -4 9 -10z m-225 -20 c0 -5 -5 -10 -11 -10
-5 0 -7 5 -4 10 3 6 8 10 11 10 2 0 4 -4 4 -10z m80 0 c0 -5 -4 -10 -10 -10
-5 0 -10 5 -10 10 0 6 5 10 10 10 6 0 10 -4 10 -10z m-150 -14 c0 -3 -4 -8
-10 -11 -5 -3 -10 -1 -10 4 0 6 5 11 10 11 6 0 10 -2 10 -4z m300 -26 c0 -5
-4 -10 -10 -10 -5 0 -10 5 -10 10 0 6 5 10 10 10 6 0 10 -4 10 -10z m-643 -96
c-3 -3 -12 -4 -19 -1 -8 3 -5 6 6 6 11 1 17 -2 13 -5z m3 -18 c0 -2 -7 -9 -15
-16 -12 -10 -15 -10 -15 4 0 9 7 16 15 16 8 0 15 -2 15 -4z m850 -46 c0 -5 -5
-10 -11 -10 -5 0 -7 5 -4 10 3 6 8 10 11 10 2 0 4 -4 4 -10z m-140 -100 c0 -5
-9 -10 -21 -10 -11 0 -17 5 -14 10 3 6 13 10 21 10 8 0 14 -4 14 -10z m-575
-69 c3 -5 2 -12 -3 -15 -5 -3 -9 1 -9 9 0 17 3 19 12 6z m-35 -42 c0 -5 -12
-8 -27 -8 -17 1 -21 3 -10 6 9 2 17 9 17 14 0 6 5 7 10 4 6 -3 10 -10 10 -16z
m200 11 c0 -5 -8 -10 -17 -10 -15 0 -16 2 -3 10 19 12 20 12 20 0z m-90 -4 c0
-11 -19 -15 -25 -6 -3 5 1 10 9 10 9 0 16 -2 16 -4z"/>
<path d="M7226 7951 c-4 -5 3 -7 14 -4 23 6 26 13 6 13 -8 0 -17 -4 -20 -9z"/>
<path d="M7260 7920 c0 -5 5 -10 10 -10 6 0 10 5 10 10 0 6 -4 10 -10 10 -5 0
-10 -4 -10 -10z"/>
<path d="M7080 7894 c0 -9 5 -14 12 -12 18 6 21 28 4 28 -9 0 -16 -7 -16 -16z"/>
<path d="M7180 7889 c0 -5 5 -7 10 -4 6 3 10 8 10 11 0 2 -4 4 -10 4 -5 0 -10
-5 -10 -11z"/>
<path d="M7916 7885 c-9 -26 -7 -32 5 -12 6 10 9 21 6 23 -2 3 -7 -2 -11 -11z"/>
<path d="M8280 7890 c0 -5 4 -10 9 -10 6 0 13 5 16 10 3 6 -1 10 -9 10 -9 0
-16 -4 -16 -10z"/>
<path d="M7720 7870 c-13 -8 -13 -10 2 -10 9 0 20 5 23 10 8 13 -5 13 -25 0z"/>
<path d="M7078 7863 c7 -3 16 -2 19 1 4 3 -2 6 -13 5 -11 0 -14 -3 -6 -6z"/>
<path d="M7133 7848 c-24 -12 -43 -26 -43 -31 0 -12 44 3 53 19 4 8 15 14 22
14 8 0 15 5 15 10 0 13 2 13 -47 -12z"/>
<path d="M8262 7840 c0 -19 2 -27 5 -17 2 9 2 25 0 35 -3 9 -5 1 -5 -18z"/>
<path d="M8293 7835 c0 -22 2 -30 4 -17 2 12 2 30 0 40 -3 9 -5 -1 -4 -23z"/>
<path d="M7680 7849 c0 -5 5 -7 10 -4 6 3 10 8 10 11 0 2 -4 4 -10 4 -5 0 -10
-5 -10 -11z"/>
<path d="M7727 7835 c-51 -18 -59 -27 -16 -19 19 4 41 13 49 20 17 17 15 17
-33 -1z"/>
<path d="M6960 7820 c0 -5 5 -10 10 -10 6 0 10 5 10 10 0 6 -4 10 -10 10 -5 0
-10 -4 -10 -10z"/>
<path d="M6966 7794 c7 -3 9 -14 6 -26 -3 -13 -1 -19 5 -15 6 4 13 16 16 27 4
16 0 20 -16 19 -12 0 -17 -3 -11 -5z"/>
<path d="M7055 7790 c3 -5 10 -10 16 -10 5 0 9 5 9 10 0 6 -7 10 -16 10 -8 0
-12 -4 -9 -10z"/>
<path d="M7705 7790 c-3 -5 -2 -10 4 -10 5 0 13 5 16 10 3 6 2 10 -4 10 -5 0
-13 -4 -16 -10z"/>
<path d="M6858 7782 c-12 -2 -18 -12 -17 -30 0 -15 3 -20 6 -12 3 8 12 21 21
27 18 15 14 21 -10 15z"/>
<path d="M7671 7744 c0 -11 3 -14 6 -6 3 7 2 16 -1 19 -3 4 -6 -2 -5 -13z"/>
<path d="M3628 7683 c-6 -16 -10 -32 -9 -37 1 -5 -4 -13 -11 -17 -9 -6 -4 -9
15 -9 15 0 27 -6 27 -12 0 -7 7 -3 15 9 13 19 13 25 0 57 -9 20 -18 36 -20 36
-3 0 -11 -12 -17 -27z"/>
<path d="M5616 7702 c-3 -5 1 -9 9 -9 8 0 15 4 15 9 0 4 -4 8 -9 8 -6 0 -12
-4 -15 -8z"/>
<path d="M5550 7680 c0 -5 5 -10 11 -10 5 0 7 5 4 10 -3 6 -8 10 -11 10 -2 0
-4 -4 -4 -10z"/>
<path d="M5721 7614 c0 -11 3 -14 6 -6 3 7 2 16 -1 19 -3 4 -6 -2 -5 -13z"/>
<path d="M5540 7580 c0 -5 5 -10 11 -10 5 0 7 5 4 10 -3 6 -8 10 -11 10 -2 0
-4 -4 -4 -10z"/>
<path d="M7850 7569 c0 -5 5 -7 10 -4 6 3 10 8 10 11 0 2 -4 4 -10 4 -5 0 -10
-5 -10 -11z"/>
<path d="M8980 7572 c0 -5 7 -13 16 -16 10 -4 14 -1 12 6 -5 15 -28 23 -28 10z"/>
<path d="M5740 7561 c0 -6 4 -13 10 -16 6 -3 7 1 4 9 -7 18 -14 21 -14 7z"/>
<path d="M6656 7555 c-3 -8 -1 -15 4 -15 6 0 10 7 10 15 0 8 -2 15 -4 15 -2 0
-6 -7 -10 -15z"/>
<path d="M7760 7530 c0 -5 5 -10 11 -10 5 0 7 5 4 10 -3 6 -8 10 -11 10 -2 0
-4 -4 -4 -10z"/>
<path d="M5587 7484 c-10 -13 -13 -24 -8 -24 10 0 36 39 29 45 -2 2 -11 -8
-21 -21z"/>
<path d="M8765 7500 c3 -5 8 -10 11 -10 2 0 4 5 4 10 0 6 -5 10 -11 10 -5 0
-7 -4 -4 -10z"/>
<path d="M5770 7480 c0 -5 5 -10 10 -10 6 0 10 5 10 10 0 6 -4 10 -10 10 -5 0
-10 -4 -10 -10z"/>
<path d="M5835 7469 c-11 -17 1 -21 15 -4 8 9 8 15 2 15 -6 0 -14 -5 -17 -11z"/>
<path d="M5280 7461 c0 -6 4 -13 10 -16 6 -4 5 -13 -2 -25 -16 -26 -6 -33 25
-19 l26 12 -22 28 c-21 29 -37 37 -37 20z"/>
<path d="M6725 7459 c-11 -17 1 -21 15 -4 8 9 8 15 2 15 -6 0 -14 -5 -17 -11z"/>
<path d="M5780 7450 c0 -5 6 -10 14 -10 8 0 18 5 21 10 3 6 -3 10 -14 10 -12
0 -21 -4 -21 -10z"/>
<path d="M5360 7435 c0 -8 5 -15 10 -15 6 0 10 7 10 15 0 8 -4 15 -10 15 -5 0
-10 -7 -10 -15z"/>
<path d="M8720 7439 c0 -5 5 -7 10 -4 6 3 10 8 10 11 0 2 -4 4 -10 4 -5 0 -10
-5 -10 -11z"/>
<path d="M5590 7419 c0 -5 5 -7 10 -4 6 3 10 8 10 11 0 2 -4 4 -10 4 -5 0 -10
-5 -10 -11z"/>
<path d="M7050 7420 c0 -5 5 -10 10 -10 6 0 10 5 10 10 0 6 -4 10 -10 10 -5 0
-10 -4 -10 -10z"/>
<path d="M8956 7395 c4 -8 10 -12 15 -9 11 6 2 24 -11 24 -5 0 -7 -7 -4 -15z"/>
<path d="M6898 7395 c-3 -6 0 -19 8 -30 11 -15 17 -16 26 -7 9 9 8 12 -4 12
-9 0 -18 8 -20 18 -2 9 -6 12 -10 7z"/>
<path d="M7140 7371 c0 -5 5 -13 10 -16 6 -3 10 -2 10 4 0 5 -4 13 -10 16 -5
3 -10 2 -10 -4z"/>
<path d="M5420 7360 c0 -5 4 -10 9 -10 6 0 13 5 16 10 3 6 -1 10 -9 10 -9 0
-16 -4 -16 -10z"/>
<path d="M5457 7357 c-4 -11 0 -15 13 -12 12 2 20 -4 24 -18 3 -12 8 -18 11
-15 4 3 0 19 -9 35 -8 15 -15 21 -16 13 0 -12 -2 -12 -9 -2 -7 11 -9 11 -14
-1z"/>
<path d="M5293 7329 c6 -10 21 -18 32 -18 17 1 17 2 2 6 -9 2 -15 8 -12 13 3
4 -4 10 -15 13 -16 4 -17 2 -7 -14z"/>
<path d="M6991 7294 c0 -11 3 -14 6 -6 3 7 2 16 -1 19 -3 4 -6 -2 -5 -13z"/>
<path d="M5289 7272 c-22 -23 -32 -59 -19 -67 6 -4 10 4 10 18 0 30 10 40 27
26 10 -9 13 -6 13 15 0 30 -8 32 -31 8z"/>
<path d="M5630 7270 c0 -5 5 -10 11 -10 5 0 7 5 4 10 -3 6 -8 10 -11 10 -2 0
-4 -4 -4 -10z"/>
<path d="M5335 7240 c3 -5 8 -10 11 -10 2 0 4 5 4 10 0 6 -5 10 -11 10 -5 0
-7 -4 -4 -10z"/>
<path d="M5370 7240 c0 -5 5 -10 10 -10 6 0 10 5 10 10 0 6 -4 10 -10 10 -5 0
-10 -4 -10 -10z"/>
<path d="M7008 7223 c7 -3 16 -2 19 1 4 3 -2 6 -13 5 -11 0 -14 -3 -6 -6z"/>
<path d="M5381 7194 c0 -11 3 -14 6 -6 3 7 2 16 -1 19 -3 4 -6 -2 -5 -13z"/>
<path d="M5142 7138 c-15 -20 -25 -78 -13 -78 6 0 8 7 5 15 -4 8 -1 15 5 15 6
0 11 9 11 20 0 11 7 20 15 20 8 0 15 5 15 10 0 14 -26 12 -38 -2z"/>
<path d="M5421 7134 c0 -11 3 -14 6 -6 3 7 2 16 -1 19 -3 4 -6 -2 -5 -13z"/>
<path d="M5101 7084 c0 -11 3 -14 6 -6 3 7 2 16 -1 19 -3 4 -6 -2 -5 -13z"/>
<path d="M5155 7080 c-3 -5 -1 -10 4 -10 6 0 11 5 11 10 0 6 -2 10 -4 10 -3 0
-8 -4 -11 -10z"/>
<path d="M5340 7070 c0 -5 5 -10 10 -10 6 0 10 5 10 10 0 6 -4 10 -10 10 -5 0
-10 -4 -10 -10z"/>
<path d="M8163 7073 c-7 -3 -13 -11 -13 -18 0 -7 -9 -15 -21 -18 -18 -5 -19
-8 -7 -29 7 -13 13 -24 13 -24 0 -1 10 -5 23 -8 16 -6 22 -3 22 8 0 32 88 10
97 -24 3 -11 13 -20 22 -20 9 0 22 -5 29 -12 7 -7 12 -9 12 -5 0 3 18 -13 40
-36 l39 -42 1 31 c0 34 -33 84 -55 84 -7 0 -24 13 -38 29 -43 52 -131 97 -164
84z m2 -74 c11 -17 -1 -21 -15 -4 -8 9 -8 15 -2 15 6 0 14 -5 17 -11z"/>
<path d="M7861 6951 c-8 -6 -9 -11 -3 -15 6 -3 14 -1 17 5 9 14 2 20 -14 10z"/>
<path d="M9840 6910 c-29 -29 -26 -52 4 -44 21 5 24 2 22 -19 0 -14 -3 -25 -6
-24 -3 1 -5 -2 -5 -8 0 -5 3 -9 8 -7 4 1 7 -5 7 -14 0 -8 -4 -12 -10 -9 -5 3
-10 -3 -10 -14 0 -15 5 -19 21 -16 30 6 42 -4 28 -21 -7 -8 -7 -14 -1 -14 14
0 22 -50 8 -50 -12 -1 23 -30 36 -30 4 0 4 10 -1 23 -5 12 -11 48 -15 80 -3
32 -10 66 -16 77 -5 10 -10 35 -10 54 0 22 -5 36 -12 36 -9 0 -8 4 2 10 12 8
11 10 -7 10 -13 0 -32 -9 -43 -20z"/>
<path d="M7766 6835 c-9 -26 -7 -32 5 -12 6 10 9 21 6 23 -2 3 -7 -2 -11 -11z"/>
<path d="M5016 6645 c-3 -8 -1 -15 3 -15 5 0 11 7 15 15 3 8 1 15 -3 15 -5 0
-11 -7 -15 -15z"/>
<path d="M8356 6609 c-24 -53 -73 -109 -96 -109 -11 0 -22 -5 -25 -11 -10 -15
-58 -35 -94 -38 -7 0 -11 -7 -8 -15 4 -10 0 -14 -14 -11 -10 2 -19 0 -19 -5 0
-4 -9 -6 -19 -3 -16 4 -19 1 -17 -18 5 -40 17 -58 34 -54 48 9 78 19 89 27 7
6 28 10 47 11 19 0 32 5 29 10 -3 5 13 26 36 46 24 21 43 47 45 65 3 16 12 36
19 45 17 19 33 101 20 101 -5 0 -17 -18 -27 -41z"/>
<path d="M6180 6600 c0 -5 5 -10 11 -10 5 0 7 5 4 10 -3 6 -8 10 -11 10 -2 0
-4 -4 -4 -10z"/>
<path d="M5040 6554 c0 -13 18 -39 24 -34 2 3 -2 14 -10 24 -8 11 -14 16 -14
10z"/>
<path d="M7767 6554 c-11 -11 3 -24 24 -24 12 0 19 5 17 13 -5 14 -31 21 -41
11z"/>
<path d="M5010 6490 c0 -11 5 -20 10 -20 6 0 10 9 10 20 0 11 -4 20 -10 20 -5
0 -10 -9 -10 -20z"/>
<path d="M7834 6484 c5 -13 2 -15 -14 -11 -21 5 -24 -1 -14 -27 8 -20 34 -21
34 -1 0 20 6 19 30 -5 11 -11 26 -20 33 -20 7 0 13 9 14 20 1 11 -4 20 -13 20
-8 0 -23 9 -34 20 -24 24 -45 26 -36 4z"/>
<path d="M4960 6458 c0 -17 3 -19 9 -9 5 7 15 17 22 22 10 6 8 9 -8 9 -17 0
-23 -6 -23 -22z"/>
<path d="M4984 6434 c3 -9 6 -19 6 -24 0 -4 9 -6 20 -3 23 6 27 23 5 23 -8 0
-15 5 -15 10 0 6 -5 10 -11 10 -6 0 -8 -7 -5 -16z"/>
<path d="M4090 6424 c0 -5 9 -20 20 -34 11 -14 20 -31 20 -37 0 -7 5 -13 10
-13 6 0 10 -4 10 -10 0 -16 38 -50 56 -50 8 0 13 -4 10 -9 -4 -5 11 -27 32
-49 35 -36 38 -38 34 -16 -2 13 -11 24 -18 24 -8 0 -14 7 -14 15 0 8 -5 15
-11 15 -5 0 -7 5 -4 10 3 6 -1 13 -9 16 -9 3 -16 10 -16 15 0 5 -21 29 -47 54
-38 37 -44 48 -33 55 9 6 10 10 3 10 -6 0 -18 3 -27 6 -9 3 -16 2 -16 -2z"/>
<path d="M4955 6420 c-3 -5 -3 -15 0 -20 4 -6 2 -17 -4 -24 -9 -10 -8 -15 1
-19 9 -3 14 8 16 34 2 39 -1 48 -13 29z"/>
<path d="M5800 6405 c0 -8 5 -15 10 -15 6 0 10 7 10 15 0 8 -4 15 -10 15 -5 0
-10 -7 -10 -15z"/>
<path d="M6447 6329 c16 -32 52 -38 61 -10 3 9 -1 11 -16 7 -15 -5 -24 -1 -32
14 -17 32 -30 23 -13 -11z"/>
<path d="M4997 6306 c-3 -8 1 -20 9 -26 11 -10 14 -9 14 8 0 25 -16 37 -23 18z"/>
<path d="M6430 6261 c0 -4 -16 -26 -35 -48 -25 -29 -48 -44 -83 -53 -26 -6
-58 -17 -72 -23 -14 -6 -29 -10 -34 -8 -4 1 -15 -4 -22 -10 -9 -7 -66 -14
-143 -17 -122 -4 -132 -3 -171 19 -23 13 -49 37 -58 54 -16 29 -16 30 -20 6
-2 -15 4 -32 17 -45 39 -38 70 -80 82 -108 13 -31 24 -34 66 -16 15 6 33 10
38 8 33 -10 222 -6 265 5 28 7 48 10 45 5 -12 -19 27 -17 48 3 35 33 109 237
86 237 -5 0 -9 -4 -9 -9z"/>
<path d="M5786 6241 c-4 -7 -5 -15 -2 -18 9 -9 19 4 14 18 -4 11 -6 11 -12 0z"/>
<path d="M4865 6100 c3 -5 8 -10 11 -10 2 0 4 5 4 10 0 6 -5 10 -11 10 -5 0
-7 -4 -4 -10z"/>
<path d="M4466 6046 c3 -9 13 -16 22 -16 8 0 13 1 11 3 -2 1 -12 9 -22 16 -15
12 -17 12 -11 -3z"/>
<path d="M3285 5820 c3 -5 10 -10 16 -10 5 0 9 5 9 10 0 6 -7 10 -16 10 -8 0
-12 -4 -9 -10z"/>
<path d="M3280 5645 c0 -8 5 -15 10 -15 6 0 10 7 10 15 0 8 -4 15 -10 15 -5 0
-10 -7 -10 -15z"/>
<path d="M8199 5508 c0 -2 -2 -12 -4 -22 -2 -10 -9 -23 -17 -27 -7 -4 -9 -11
-6 -15 4 -4 3 -15 -2 -25 -7 -12 -6 -20 2 -25 7 -4 8 -3 4 5 -11 17 21 25 38
9 9 -10 11 -20 5 -29 -13 -21 -11 -25 16 -37 35 -16 35 -16 22 13 -7 14 -14
25 -17 25 -3 0 -5 20 -4 44 0 32 -3 43 -12 39 -9 -3 -12 2 -9 16 2 11 0 23 -6
26 -5 4 -9 5 -10 3z"/>
<path d="M9526 5502 c-3 -6 -1 -14 5 -17 15 -10 25 3 12 16 -7 7 -13 7 -17 1z"/>
<path d="M3709 5444 c8 -18 16 -32 17 -31 7 7 -10 56 -20 60 -9 4 -8 -5 3 -29z"/>
<path d="M9560 5450 c5 -10 33 -38 62 -62 28 -24 72 -61 97 -84 41 -36 166
-104 191 -104 5 0 41 -15 80 -34 38 -18 70 -29 70 -25 0 5 -5 9 -10 9 -6 0
-21 10 -34 23 -31 30 -50 42 -125 79 -36 17 -77 42 -92 56 -15 13 -29 22 -31
21 -5 -6 -82 44 -91 58 -4 7 -13 13 -18 13 -6 0 -26 16 -45 35 -38 39 -72 49
-54 15z"/>
<path d="M9050 5405 c0 -9 5 -15 11 -13 6 2 11 8 11 13 0 5 -5 11 -11 13 -6 2
-11 -4 -11 -13z"/>
<path d="M8191 5384 c0 -11 3 -14 6 -6 3 7 2 16 -1 19 -3 4 -6 -2 -5 -13z"/>
<path d="M8140 5361 c0 -5 7 -12 16 -15 24 -9 28 -7 14 9 -14 17 -30 20 -30 6z"/>
<path d="M8200 5331 c0 -7 -6 -11 -14 -8 -21 8 -29 -24 -12 -41 12 -12 18 -13
30 -3 8 7 20 10 26 6 16 -10 11 8 -10 35 -11 14 -20 19 -20 11z"/>
<path d="M3772 5285 c10 -32 38 -57 38 -34 0 15 -33 69 -41 69 -4 0 -2 -16 3
-35z"/>
<path d="M8175 5220 c-3 -5 -1 -10 4 -10 6 0 11 5 11 10 0 6 -2 10 -4 10 -3 0
-8 -4 -11 -10z"/>
<path d="M3870 5148 c0 -9 5 -20 11 -23 17 -11 20 0 4 21 -13 17 -14 17 -15 2z"/>
<path d="M5004 5149 c-3 -5 -14 -9 -25 -9 -10 0 -19 -6 -19 -13 0 -8 -11 -24
-25 -37 -29 -27 -32 -21 -9 15 14 22 14 25 1 25 -8 0 -17 -9 -20 -20 -6 -25
-42 -27 -56 -3 -8 15 -13 14 -42 -15 -18 -18 -41 -32 -52 -32 -13 0 -17 -5
-13 -15 7 -18 -20 -21 -28 -2 -2 6 -3 -5 -1 -26 l4 -37 -29 15 c-25 13 -30 13
-30 1 0 -7 -7 -16 -15 -20 -25 -9 -17 -24 17 -31 31 -7 31 -8 11 -24 -22 -17
-37 -49 -34 -69 1 -7 -5 -15 -14 -18 -8 -3 -15 -14 -15 -24 0 -11 -4 -21 -9
-25 -5 -3 -13 -31 -17 -63 -6 -44 -9 -52 -14 -32 -6 24 -7 24 -11 -7 -3 -19
-1 -34 5 -37 6 -2 0 -8 -14 -14 -14 -6 -20 -11 -14 -11 18 -1 25 -41 8 -41
-19 0 -18 -16 1 -24 8 -3 12 -12 9 -21 -5 -11 1 -15 26 -15 30 0 32 2 28 30
-4 23 -1 30 13 30 13 0 16 -6 11 -22 -5 -20 -3 -21 10 -10 11 9 18 10 23 2 10
-17 24 -2 18 20 -4 16 -2 19 13 15 12 -4 11 -1 -3 6 -26 14 -30 29 -8 29 8 0
15 -4 15 -10 0 -5 12 -10 26 -10 15 0 23 4 19 11 -4 6 2 13 14 16 12 3 21 10
21 15 0 5 9 7 20 3 14 -4 27 2 45 21 14 15 25 22 25 15 0 -6 4 -11 9 -11 10 0
24 38 22 58 -1 6 3 12 9 12 5 0 10 -4 10 -10 0 -5 5 -10 11 -10 7 0 9 10 5 25
-9 37 2 30 13 -7 7 -24 9 -27 10 -12 1 12 8 25 17 28 10 4 13 13 9 25 -3 11
-1 22 5 26 7 4 14 -2 17 -13 6 -26 33 -18 33 10 0 12 6 18 18 16 9 -2 16 3 15
10 -2 6 2 12 7 12 6 0 10 6 10 13 0 16 33 44 47 40 6 -2 11 8 11 22 0 34 21
75 39 75 21 0 16 11 -24 52 -20 21 -32 38 -26 38 7 0 15 -4 18 -10 9 -15 34
-12 51 5 9 8 11 15 5 15 -6 0 -12 8 -12 18 -1 9 -4 4 -8 -11 l-6 -28 -33 31
c-18 16 -43 30 -55 30 -18 0 -19 2 -7 10 13 8 12 10 -2 10 -10 0 -18 -6 -18
-12 -1 -9 -4 -8 -13 2 -14 17 -44 22 -53 9z m-159 -69 c3 -5 1 -10 -4 -10 -6
0 -11 5 -11 10 0 6 2 10 4 10 3 0 8 -4 11 -10z m-15 -30 c0 -5 -5 -10 -11 -10
-5 0 -7 5 -4 10 3 6 8 10 11 10 2 0 4 -4 4 -10z m-46 -26 c5 -14 4 -15 -9 -4
-17 14 -19 20 -6 20 5 0 12 -7 15 -16z m-194 -474 c0 -5 -4 -10 -10 -10 -5 0
-10 5 -10 10 0 6 5 10 10 10 6 0 10 -4 10 -10z"/>
<path d="M5170 5133 c0 -10 4 -14 8 -8 4 6 11 13 16 18 5 4 2 7 -7 7 -10 0
-17 -8 -17 -17z"/>
<path d="M4088 4833 c6 -2 12 -11 12 -19 0 -8 5 -14 10 -14 6 0 10 -7 10 -15
0 -9 6 -18 14 -21 16 -6 27 -34 31 -79 2 -16 8 -31 14 -33 21 -7 33 -42 20
-58 -19 -23 2 -37 35 -24 37 14 46 13 40 -5 -7 -17 11 -21 21 -5 3 6 17 10 30
10 33 0 54 58 28 77 -9 7 -23 13 -31 13 -7 0 -10 5 -7 10 3 6 1 10 -4 10 -6 0
-11 11 -11 25 0 15 -7 28 -17 32 -10 4 -22 12 -26 20 -13 21 -25 15 -29 -14
l-3 -28 -25 25 c-14 14 -28 24 -31 23 -3 -1 -12 10 -20 25 -17 33 -39 52 -59
51 -10 0 -11 -2 -2 -6z"/>
<path d="M6363 4623 c-15 -21 -31 -40 -35 -43 -4 -3 -30 -53 -57 -110 -47 -98
-62 -150 -43 -150 5 0 13 10 19 23 51 113 113 226 138 251 17 16 29 33 28 38
-2 4 2 8 8 8 5 0 7 5 4 10 -12 19 -34 10 -62 -27z"/>
<path d="M9545 4600 c-14 -21 -13 -60 1 -60 16 0 22 20 14 50 -5 20 -8 22 -15
10z"/>
<path d="M9500 4569 c0 -11 4 -18 10 -14 5 3 7 12 3 20 -7 21 -13 19 -13 -6z"/>
<path d="M5316 4485 c-22 -12 -31 -13 -37 -4 -5 8 -15 3 -34 -17 -23 -25 -34
-29 -77 -27 -38 1 -48 -2 -44 -13 6 -16 -33 -29 -62 -20 -11 4 -29 -2 -45 -14
-14 -11 -31 -20 -39 -20 -7 0 -28 -9 -45 -20 -18 -11 -33 -17 -33 -13 0 4 -10
-3 -23 -15 -12 -11 -40 -29 -62 -38 -40 -16 -95 -54 -80 -54 15 0 66 17 300
100 50 18 115 44 145 58 69 32 189 112 168 112 -2 0 -16 -7 -32 -15z"/>
<path d="M4317 4413 c-4 -3 -7 -13 -7 -22 1 -13 3 -13 11 2 11 19 8 33 -4 20z"/>
<path d="M9456 4248 c-16 -27 -30 -98 -19 -98 5 0 14 14 22 31 10 23 16 28 22
18 7 -11 9 -10 9 3 0 9 -5 20 -10 23 -6 4 -8 15 -5 26 8 26 -1 24 -19 -3z"/>
<path d="M6180 3920 c0 -5 5 -10 10 -10 6 0 10 5 10 10 0 6 -4 10 -10 10 -5 0
-10 -4 -10 -10z"/>
<path d="M9181 3678 c-14 -23 -14 -23 8 -4 22 20 25 26 13 26 -4 0 -13 -10
-21 -22z"/>
<path d="M7176 3672 c-2 -4 -1 -14 5 -22 7 -12 9 -10 9 8 0 23 -5 28 -14 14z"/>
<path d="M7230 3660 c0 -5 4 -10 9 -10 6 0 13 5 16 10 3 6 -1 10 -9 10 -9 0
-16 -4 -16 -10z"/>
<path d="M7751 3604 c0 -11 3 -14 6 -6 3 7 2 16 -1 19 -3 4 -6 -2 -5 -13z"/>
<path d="M5780 2869 c0 -5 5 -7 10 -4 6 3 10 8 10 11 0 2 -4 4 -10 4 -5 0 -10
-5 -10 -11z"/>
</g>
</svg>
