<?xml version="1.0" standalone="no"?>
<!DOCTYPE svg PUBLIC "-//W3C//DTD SVG 20010904//EN"
 "http://www.w3.org/TR/2001/REC-SVG-20010904/DTD/svg10.dtd">
<svg version="1.0" xmlns="http://www.w3.org/2000/svg"
 width="100.000000pt" height="100.000000pt" viewBox="0 0 100.000000 100.000000"
 preserveAspectRatio="xMidYMid meet">
<metadata>
Created by potrace 1.14, written by Peter Selinger 2001-2017
</metadata>
<g transform="translate(0.000000,100.000000) scale(0.100000,-0.100000)"
fill="#000000" stroke="none">
<path d="M962 784 c-22 -15 -32 -41 -10 -28 7 4 8 3 4 -4 -5 -8 1 -12 17 -12
20 0 24 5 24 30 0 34 -4 36 -35 14z"/>
<path d="M855 723 c-33 -19 -62 -38 -65 -42 -10 -12 -68 -41 -83 -41 -9 0 -19
-5 -23 -12 -4 -7 -3 -8 4 -4 7 4 12 2 12 -3 0 -6 -8 -11 -17 -12 -10 0 -13 -3
-6 -5 7 -3 21 -1 31 5 11 6 34 13 53 16 19 3 42 8 53 11 41 13 7 -21 -62 -60
-40 -23 -96 -60 -125 -83 -58 -48 -71 -50 -162 -27 -70 18 -109 14 -119 -12
-7 -18 -1 -28 58 -98 32 -38 36 -49 26 -61 -7 -8 -22 -15 -34 -15 -20 1 -20 1
-3 14 13 10 15 16 6 21 -6 4 -15 1 -20 -6 -7 -11 -9 -9 -9 7 0 11 -3 23 -6 27
-10 9 -34 -4 -34 -19 0 -8 6 -11 16 -7 13 5 15 2 9 -15 -4 -13 -2 -22 4 -22 8
0 7 -7 -1 -20 -7 -11 -20 -20 -28 -19 -10 0 -11 2 -2 6 25 10 11 22 -19 16
-21 -4 -34 -1 -40 8 -8 12 -10 12 -18 0 -7 -11 -11 -10 -20 7 -10 18 -8 21 18
27 23 5 28 10 23 27 -5 20 -5 20 -23 -3 l-19 -24 0 23 c0 15 4 21 12 16 7 -5
9 -2 5 9 -4 11 -2 14 9 10 7 -3 14 0 14 6 0 6 7 11 15 11 8 0 15 5 15 11 0 13
-58 5 -73 -10 -4 -4 -9 -22 -9 -40 -1 -27 -5 -31 -27 -30 -24 0 -24 1 -6 9
l20 9 -20 0 c-17 1 -17 3 -5 11 9 6 10 10 3 10 -7 0 -16 -6 -20 -14 -4 -8 -19
-16 -33 -18 -14 -1 -27 -6 -30 -9 -3 -3 -26 -16 -53 -27 l-47 -21 1 -130 1
-131 29 0 c17 0 39 5 50 10 13 8 19 7 19 0 0 -6 32 -9 85 -8 81 1 85 2 85 24
0 30 20 42 21 12 0 -20 1 -20 8 -5 4 10 10 18 14 18 4 -1 7 1 7 4 0 3 -3 5 -7
4 -8 -1 -21 29 -22 49 -1 7 4 10 9 7 6 -3 10 -1 10 5 0 6 5 8 10 5 6 -3 10 -2
10 4 0 9 213 135 230 136 3 1 15 6 26 13 12 6 24 8 28 5 3 -3 6 -1 6 5 0 6 18
21 40 32 22 11 40 24 40 28 0 4 10 13 23 21 17 10 19 11 10 0 -7 -7 -13 -18
-13 -24 0 -6 3 -5 8 2 4 6 14 13 22 15 19 4 40 24 40 37 0 10 39 41 52 41 5 0
6 -11 4 -25 -4 -24 -4 -24 20 -9 24 16 31 25 17 23 -34 -5 -17 6 42 29 l70 27
3 43 c3 41 -4 49 -40 43 -12 -2 -9 17 4 25 8 5 6 10 -8 14 -17 6 -16 9 11 23
17 9 23 16 15 17 -9 0 -26 -7 -38 -16 -13 -9 -26 -14 -29 -10 -8 8 23 36 40
36 24 0 20 68 -4 75 -10 4 -19 11 -19 16 0 15 -11 10 -75 -28z m49 -13 c-9
-16 -19 -32 -23 -35 -14 -8 -7 30 9 47 23 27 30 21 14 -12z m-54 -26 c0 -8 -5
-12 -10 -9 -6 4 -8 11 -5 16 9 14 15 11 15 -7z m77 -6 c-3 -8 -6 -5 -6 6 -1
11 2 17 5 13 3 -3 4 -12 1 -19z m-97 -18 c0 -5 -7 -10 -16 -10 -8 0 -12 5 -9
10 3 6 10 10 16 10 5 0 9 -4 9 -10z m68 -33 c-1 -20 -7 -31 -20 -35 -10 -2
-18 -8 -18 -13 0 -5 -9 -9 -20 -9 -10 0 -23 -8 -29 -17 -5 -10 -12 -15 -16
-11 -3 3 7 21 24 40 19 22 28 42 25 54 -4 15 1 19 25 20 27 1 29 -2 29 -29z
m-8 -71 c-19 -13 -36 -20 -38 -15 -6 15 22 38 48 39 23 0 23 -1 -10 -24z
m-103 -42 c-3 -3 -12 -4 -19 -1 -8 3 -5 6 6 6 11 1 17 -2 13 -5z m-309 -134
c14 0 15 -2 2 -10 -28 -17 1 -25 31 -7 35 20 49 21 49 6 0 -5 -4 -7 -10 -4 -5
3 -10 1 -10 -6 0 -7 -3 -10 -6 -6 -4 3 -20 -1 -35 -9 -28 -14 -30 -14 -39 11
-10 27 -13 62 -3 38 2 -7 12 -13 21 -13z m61 17 c-2 -1 -11 -8 -20 -15 -13 -9
-16 -9 -16 3 0 8 9 15 20 15 11 0 18 -1 16 -3z m84 -42 c4 -8 1 -17 -6 -21 -7
-4 -9 -4 -5 1 4 4 3 14 -3 22 -7 8 -8 13 -1 13 5 0 12 -7 15 -15z m-437 -68
c4 -4 -2 -7 -14 -7 -12 0 -22 4 -22 9 0 10 26 9 36 -2z m-109 -38 c-6 -10 -18
-21 -26 -24 -11 -4 -10 0 3 14 10 11 15 24 11 30 -3 7 0 8 9 5 12 -5 13 -9 3
-25z m48 21 c-3 -5 -1 -10 4 -10 17 0 13 -17 -5 -24 -26 -10 -35 3 -16 24 17
21 27 27 17 10z m369 -2 c-3 -4 -12 -4 -21 -1 -12 5 -14 3 -8 -8 8 -12 6 -12
-8 0 -23 19 -22 22 12 19 16 -1 28 -6 25 -10z m-89 -8 c-3 -5 0 -10 7 -11 10
0 10 -2 0 -6 -6 -2 -9 -9 -6 -15 4 -5 -4 -4 -17 3 -22 11 -23 11 -10 -4 8 -10
9 -17 3 -17 -21 0 -24 21 -6 41 18 20 40 27 29 9z m-365 -10 c0 -5 -7 -7 -15
-4 -8 4 -15 8 -15 10 0 2 7 4 15 4 8 0 15 -4 15 -10z m165 -20 c3 -6 -1 -13
-9 -16 -9 -3 -16 -12 -16 -20 0 -8 -4 -14 -10 -14 -6 0 -6 9 0 26 9 23 8 25
-7 19 -10 -4 -27 -9 -38 -12 -20 -4 -20 -4 -1 11 22 18 72 21 81 6z m85 -29
c0 -16 -13 -19 -37 -8 -22 10 -23 12 -6 18 19 7 43 1 43 -10z m-200 -6 c0 -8
-4 -15 -9 -15 -5 0 -18 -3 -28 -7 -17 -6 -17 -5 1 15 22 26 36 28 36 7z m47
-19 c0 -8 -6 -12 -14 -9 -17 7 -17 23 0 23 8 0 14 -6 14 -14z m51 -13 c-21 -5
-23 -19 -5 -27 10 -4 -8 -3 -42 3 -12 2 36 30 49 30 11 -1 10 -3 -2 -6z m-126
-45 c-7 -7 -12 -8 -12 -2 0 14 12 26 19 19 2 -3 -1 -11 -7 -17z m128 -7 c0 -6
-4 -12 -8 -15 -5 -3 -9 1 -9 9 0 8 4 15 9 15 4 0 8 -4 8 -9z m57 -56 c-12 -12
-28 -19 -36 -17 -7 3 -17 -1 -22 -9 -4 -8 -25 -14 -45 -14 l-37 -1 31 26 c17
14 42 26 57 27 15 0 34 8 43 17 12 12 18 13 23 4 5 -7 -2 -21 -14 -33z m-127
15 c0 -5 -5 -10 -11 -10 -5 0 -7 5 -4 10 3 6 8 10 11 10 2 0 4 -4 4 -10z"/>
<path d="M871 641 c-8 -5 -9 -11 -3 -15 5 -3 12 1 16 9 6 17 6 18 -13 6z"/>
<path d="M986 701 c-4 -7 -5 -15 -2 -18 9 -9 19 4 14 18 -4 11 -6 11 -12 0z"/>
<path d="M973 605 c0 -15 5 -25 13 -25 8 0 14 10 14 25 0 15 -6 25 -14 25 -8
0 -13 -10 -13 -25z"/>
<path d="M565 557 c-16 -12 -43 -24 -60 -26 -16 -2 -41 -9 -55 -16 l-25 -13
30 -7 c17 -4 37 -8 45 -10 18 -5 104 68 99 84 -3 6 -16 1 -34 -12z"/>
<path d="M290 360 c-9 -17 -8 -20 8 -20 22 0 46 23 35 33 -12 13 -32 7 -43
-13z"/>
<path d="M295 320 c-3 -6 1 -7 9 -4 18 7 21 14 7 14 -6 0 -13 -4 -16 -10z"/>
<path d="M385 150 c-3 -5 -1 -10 4 -10 6 0 11 5 11 10 0 6 -2 10 -4 10 -3 0
-8 -4 -11 -10z"/>
<path d="M915 132 c-18 -12 -35 -51 -35 -77 0 -29 45 -54 64 -35 5 5 15 10 21
10 5 0 4 -4 -3 -9 -10 -6 -7 -10 11 -13 22 -4 24 -1 25 33 1 21 -3 41 -8 44
-6 3 -10 -1 -10 -9 0 -9 -4 -16 -10 -16 -5 0 -10 6 -10 13 0 8 -11 20 -25 27
-18 10 -22 16 -13 21 7 4 10 10 7 13 -2 3 -9 2 -14 -2z m25 -59 c0 -8 -5 -11
-12 -7 -8 5 -9 2 -5 -9 4 -11 1 -17 -8 -17 -22 0 -30 22 -11 32 9 5 14 13 11
19 -3 5 1 6 9 3 9 -3 16 -13 16 -21z"/>
<path d="M985 130 c-3 -5 -1 -10 4 -10 6 0 11 5 11 10 0 6 -2 10 -4 10 -3 0
-8 -4 -11 -10z"/>
<path d="M690 99 c0 -5 -4 -7 -10 -4 -14 9 -13 -8 2 -23 8 -8 8 -12 1 -12 -6
0 -14 -7 -17 -16 -4 -10 -2 -13 7 -8 7 5 7 1 -2 -10 -10 -12 -17 -14 -25 -6
-5 5 -17 10 -25 10 -34 0 8 -21 49 -25 32 -3 47 0 58 13 13 16 13 16 8 -2 -6
-16 -4 -17 9 -6 12 10 18 10 29 1 12 -10 14 -9 12 6 -2 10 -10 18 -19 18 -8 0
-19 3 -23 7 -3 4 -14 3 -24 -2 -24 -13 -29 -5 -20 36 4 19 4 34 -1 34 -5 0 -9
-5 -9 -11z"/>
<path d="M760 85 c0 -21 16 -27 29 -11 9 11 7 15 -9 19 -13 3 -20 0 -20 -8z"/>
<path d="M490 31 c0 -30 1 -31 49 -31 48 0 72 12 51 25 -5 3 -10 0 -10 -7 0
-9 -3 -9 -10 2 -5 8 -10 11 -10 5 0 -5 -11 -10 -25 -10 -17 0 -25 6 -25 17 0
9 -4 20 -10 23 -6 4 -10 -7 -10 -24z"/>
</g>
</svg>
